<svg id="Layer_1" data-name="Layer 1" xmlns="http://www.w3.org/2000/svg" viewBox="0 0 1413.77 336.84"><defs><style>.cls-1{fill:#2f508a;}.cls-2{fill:#727efe;}.cls-3{opacity:0.6;}.cls-4{opacity:0.8;}.cls-5{opacity:0.9;}.cls-6{opacity:0.7;}.cls-7{opacity:0.5;}.cls-8{fill:#6881fe;}.cls-9{fill:none;stroke:#727efe;stroke-linecap:round;stroke-linejoin:round;stroke-width:0;}</style></defs><path class="cls-1" d="M678.78,299.82a90,90,0,0,0,10-.51,63.61,63.61,0,0,0,8.58-1.55,60.42,60.42,0,0,0,7.6-2.48c2.37-1,4.75-2.08,7.12-3.33V262.32H691.25a4,4,0,0,1-2.86-1,3.35,3.35,0,0,1-1.08-2.53V248.44h41.26V300A75.14,75.14,0,0,1,718,306.39a72.18,72.18,0,0,1-11.72,4.54,84.38,84.38,0,0,1-13.36,2.72,123.93,123.93,0,0,1-15.47.89,69.85,69.85,0,0,1-26.82-5,61.77,61.77,0,0,1-21-14.07,63.88,63.88,0,0,1-13.73-21.71A76.2,76.2,0,0,1,611,245.91a78.11,78.11,0,0,1,4.82-28,60.26,60.26,0,0,1,35.45-35.72,77.4,77.4,0,0,1,28.46-5,88,88,0,0,1,14.81,1.17,70.06,70.06,0,0,1,12.71,3.37,59.33,59.33,0,0,1,10.83,5.35,65.93,65.93,0,0,1,9.28,7.08l-5.16,8.25a4.73,4.73,0,0,1-4.12,2.53,6.65,6.65,0,0,1-3.29-1q-2.34-1.32-5.25-3.19a45,45,0,0,0-7.08-3.61,57.29,57.29,0,0,0-9.84-2.95,65,65,0,0,0-13.46-1.22,54.44,54.44,0,0,0-20.53,3.7A43.33,43.33,0,0,0,643,207.23,46.88,46.88,0,0,0,633,223.92a65.63,65.63,0,0,0-3.47,22,66.57,66.57,0,0,0,3.61,22.74,48.13,48.13,0,0,0,10.17,16.92,44,44,0,0,0,15.57,10.6A52.51,52.51,0,0,0,678.78,299.82Z" transform="translate(-43.11 -81.58)"/><path class="cls-1" d="M766.82,188.24a10.57,10.57,0,0,1-1,4.55,13.09,13.09,0,0,1-2.63,3.75,12.37,12.37,0,0,1-3.79,2.58,11.5,11.5,0,0,1-4.6.94,11.16,11.16,0,0,1-4.55-.94,12.68,12.68,0,0,1-3.75-2.58,12.55,12.55,0,0,1-2.58-3.75,11.15,11.15,0,0,1-.93-4.55,11.83,11.83,0,0,1,.93-4.64,12.28,12.28,0,0,1,2.58-3.85,12.47,12.47,0,0,1,3.75-2.57,11,11,0,0,1,4.55-.94,11.34,11.34,0,0,1,4.6.94,12.16,12.16,0,0,1,3.79,2.57,12.77,12.77,0,0,1,2.63,3.85A11.2,11.2,0,0,1,766.82,188.24Zm-3.75,29.82v95H746.38v-95Z" transform="translate(-43.11 -81.58)"/><path class="cls-1" d="M811.92,314.54q-11.25,0-17.3-6.28t-6-18.1V232H777.14a3.78,3.78,0,0,1-2.54-.89,3.49,3.49,0,0,1-1-2.77v-6.66l15.57-2L793,190.4a3.55,3.55,0,0,1,1.22-2.3,3.9,3.9,0,0,1,2.63-.89h8.44v32.72h27.19V232H805.27v57c0,4,1,7,2.9,8.91a10.15,10.15,0,0,0,7.51,2.9,13.21,13.21,0,0,0,4.54-.7,19.19,19.19,0,0,0,3.33-1.55c.94-.56,1.74-1.07,2.39-1.54a3.16,3.16,0,0,1,1.74-.71A2.87,2.87,0,0,1,830,298l4.88,8a31.12,31.12,0,0,1-10.41,6.33A35.4,35.4,0,0,1,811.92,314.54Z" transform="translate(-43.11 -81.58)"/><path class="cls-1" d="M971.14,245.91a77.46,77.46,0,0,1-4.79,27.7,63.19,63.19,0,0,1-13.5,21.71,60.21,60.21,0,0,1-21,14.11,75.28,75.28,0,0,1-54.06,0,60.23,60.23,0,0,1-20.91-14.11,63.49,63.49,0,0,1-13.5-21.71,82.52,82.52,0,0,1,0-55.41,64.09,64.09,0,0,1,13.5-21.76,60.72,60.72,0,0,1,20.91-14.2,74.73,74.73,0,0,1,54.06,0,60.7,60.7,0,0,1,21,14.2,63.78,63.78,0,0,1,13.5,21.76A77.51,77.51,0,0,1,971.14,245.91Zm-18.66,0a68.37,68.37,0,0,0-3.38-22.23A47.07,47.07,0,0,0,939.54,207a41.45,41.45,0,0,0-15-10.45,54.52,54.52,0,0,0-39.28,0,41.77,41.77,0,0,0-15,10.45,46.57,46.57,0,0,0-9.61,16.64,74.6,74.6,0,0,0,0,44.4,46.65,46.65,0,0,0,9.61,16.6,41.43,41.43,0,0,0,15,10.41,55.23,55.23,0,0,0,39.28,0,41.11,41.11,0,0,0,15-10.41,47.16,47.16,0,0,0,9.56-16.6A67.83,67.83,0,0,0,952.48,245.91Z" transform="translate(-43.11 -81.58)"/><path class="cls-1" d="M984,345.21V218.06h9.94a4.25,4.25,0,0,1,4.5,3.47l1.41,11.25a50.61,50.61,0,0,1,13.92-11.91,35.58,35.58,0,0,1,18-4.5,34.37,34.37,0,0,1,14.82,3.14,30.56,30.56,0,0,1,11.34,9.28,44.39,44.39,0,0,1,7.22,15.24,78.13,78.13,0,0,1,2.53,20.91,65.38,65.38,0,0,1-2.81,19.55,47.57,47.57,0,0,1-8.06,15.66A37.64,37.64,0,0,1,1044,310.56a38.21,38.21,0,0,1-17.21,3.8,35.38,35.38,0,0,1-15-2.91,34,34,0,0,1-11-8.25v42Zm42.29-115.34a26.88,26.88,0,0,0-14.3,3.75,41.38,41.38,0,0,0-11.3,10.6v45.94a26.69,26.69,0,0,0,10.08,8.72,28.85,28.85,0,0,0,12.24,2.54q13.21,0,20.35-9.47t7.12-27a67.59,67.59,0,0,0-1.64-15.94,31.08,31.08,0,0,0-4.73-10.92,18.51,18.51,0,0,0-7.6-6.24A25.31,25.31,0,0,0,1026.27,229.87Z" transform="translate(-43.11 -81.58)"/><path class="cls-1" d="M1132.5,233.72a3.68,3.68,0,0,1-3.46,2.06,6.48,6.48,0,0,1-3.19-1c-1.19-.69-2.64-1.45-4.36-2.3a41.5,41.5,0,0,0-6.15-2.34,29.17,29.17,0,0,0-8.43-1.08,24.87,24.87,0,0,0-7.6,1.08,18.35,18.35,0,0,0-5.77,2.95,13.11,13.11,0,0,0-3.65,4.36,11.66,11.66,0,0,0-1.27,5.39,9,9,0,0,0,2.11,6.1,18.54,18.54,0,0,0,5.58,4.22,48.62,48.62,0,0,0,7.88,3.14q4.39,1.35,9,2.9t9,3.43a32.61,32.61,0,0,1,7.88,4.69,21.46,21.46,0,0,1,5.58,6.89,21,21,0,0,1,2.11,9.8,30.91,30.91,0,0,1-2.35,12.14,26.49,26.49,0,0,1-6.93,9.66,33.53,33.53,0,0,1-11.25,6.42,46.34,46.34,0,0,1-15.38,2.34,47.94,47.94,0,0,1-18-3.23,45.67,45.67,0,0,1-13.69-8.3l3.94-6.38a5.83,5.83,0,0,1,1.78-1.87,5,5,0,0,1,2.72-.66,6.27,6.27,0,0,1,3.57,1.32q1.88,1.31,4.54,2.9a35.13,35.13,0,0,0,6.47,2.91,29.38,29.38,0,0,0,9.52,1.31,26.15,26.15,0,0,0,8.53-1.26,18.05,18.05,0,0,0,6.1-3.43,13.5,13.5,0,0,0,3.61-5,15.43,15.43,0,0,0,1.17-6,9.93,9.93,0,0,0-2.11-6.51,17.89,17.89,0,0,0-5.58-4.41,45.51,45.51,0,0,0-7.92-3.19c-3-.9-6-1.86-9.1-2.86s-6.12-2.14-9.09-3.42a32,32,0,0,1-7.93-4.83,21.86,21.86,0,0,1-5.57-7.17,23.18,23.18,0,0,1-2.11-10.37,25.26,25.26,0,0,1,2.25-10.45,25.58,25.58,0,0,1,6.56-8.81,32.12,32.12,0,0,1,10.6-6.05,42.32,42.32,0,0,1,14.34-2.25,45.36,45.36,0,0,1,16.83,2.95,40.06,40.06,0,0,1,12.9,8.11Z" transform="translate(-43.11 -81.58)"/><path class="cls-2" d="M1154.58,181.58h14.89a6.37,6.37,0,0,1,4,1.2,5.88,5.88,0,0,1,2.13,3.06L1203,278c.49,1.67.94,3.45,1.34,5.37s.79,3.91,1.16,6q.64-3.15,1.29-6.06a49.13,49.13,0,0,1,1.48-5.32l31.18-92.13a6.79,6.79,0,0,1,2.17-2.92,6,6,0,0,1,3.93-1.34h5.18a6.19,6.19,0,0,1,3.94,1.2,6.58,6.58,0,0,1,2.17,3.06l31,92.13a91.88,91.88,0,0,1,3,11q.55-3.06,1-5.83A37.53,37.53,0,0,1,1293,278l27.47-92.13a5.77,5.77,0,0,1,2.08-3,6.06,6.06,0,0,1,3.93-1.3h14l-41.35,132.56H1283L1249.4,213a54.54,54.54,0,0,1-1.85-6.66c-.31,1.24-.6,2.42-.88,3.56s-.57,2.18-.88,3.1L1212,314.14h-16.1Z" transform="translate(-43.11 -81.58)"/><path class="cls-2" d="M1407.77,301.1a87.66,87.66,0,0,0,9.85-.51,62.4,62.4,0,0,0,8.46-1.53,57.15,57.15,0,0,0,7.49-2.45c2.35-1,4.69-2.05,7-3.28V264.1h-20.54a3.89,3.89,0,0,1-2.82-1,3.33,3.33,0,0,1-1.07-2.5V250.4h40.71v50.88a73.69,73.69,0,0,1-10.41,6.29,70.6,70.6,0,0,1-11.56,4.49,84.74,84.74,0,0,1-13.19,2.68,122.46,122.46,0,0,1-15.26.88,68.89,68.89,0,0,1-26.46-4.95,60.91,60.91,0,0,1-20.72-13.88,63.06,63.06,0,0,1-13.55-21.41,75.1,75.1,0,0,1-4.86-27.47,76.91,76.91,0,0,1,4.77-27.66,59.48,59.48,0,0,1,35-35.25,76.53,76.53,0,0,1,28.08-4.9,86.92,86.92,0,0,1,14.62,1.16,68.09,68.09,0,0,1,12.53,3.33,58.41,58.41,0,0,1,10.69,5.27,65.6,65.6,0,0,1,9.15,7l-5.09,8.14a4.65,4.65,0,0,1-4.06,2.5,6.54,6.54,0,0,1-3.24-1q-2.31-1.29-5.18-3.14a44.34,44.34,0,0,0-7-3.56,56.9,56.9,0,0,0-9.71-2.92,64.12,64.12,0,0,0-13.28-1.2,53.82,53.82,0,0,0-20.25,3.65,42.86,42.86,0,0,0-15.45,10.46,46.17,46.17,0,0,0-9.81,16.46,64.79,64.79,0,0,0-3.42,21.7,65.86,65.86,0,0,0,3.56,22.43,47.46,47.46,0,0,0,10,16.7,43.34,43.34,0,0,0,15.35,10.45A51.8,51.8,0,0,0,1407.77,301.1Z" transform="translate(-43.11 -81.58)"/><g class="cls-3"><path class="cls-2" d="M75.72,284.64A7.76,7.76,0,0,1,68,292.4h50.3a7.76,7.76,0,1,1,0-15.51H68A7.76,7.76,0,0,1,75.72,284.64Z" transform="translate(-43.11 -81.58)"/></g><g class="cls-4"><path class="cls-2" d="M127.62,211.34a7.76,7.76,0,0,1-7.76,7.76h21.35q3.87-3.89,7.76-7.76l7.76-7.76H119.86A7.75,7.75,0,0,1,127.62,211.34Z" transform="translate(-43.11 -81.58)"/></g><g class="cls-3"><path class="cls-2" d="M110.5,211.34a7.76,7.76,0,0,0,7.76,7.76h1.6a7.76,7.76,0,1,0,0-15.52h-1.6A7.75,7.75,0,0,0,110.5,211.34Z" transform="translate(-43.11 -81.58)"/></g><g class="cls-4"><path class="cls-2" d="M110.5,211.34a7.76,7.76,0,0,0,7.76,7.76h1.6a7.76,7.76,0,1,0,0-15.52h-1.6A7.75,7.75,0,0,0,110.5,211.34Z" transform="translate(-43.11 -81.58)"/></g><g class="cls-5"><path class="cls-2" d="M153.84,186.19a7.75,7.75,0,0,0-7.76-7.76H58.77A164.21,164.21,0,0,0,52.45,194h93.63A7.76,7.76,0,0,0,153.84,186.19Z" transform="translate(-43.11 -81.58)"/></g><g class="cls-6"><path class="cls-2" d="M236.42,178.43c1.18,1.17,2.36,2.33,3.53,3.51q2.73,2.73,5.44,5.48,1.85-4.56,3.93-9Z" transform="translate(-43.11 -81.58)"/></g><g class="cls-6"><path class="cls-2" d="M153.84,186.19a7.76,7.76,0,0,1-7.76,7.76h20.29l15.51-15.52h-35.8A7.75,7.75,0,0,1,153.84,186.19Z" transform="translate(-43.11 -81.58)"/></g><g class="cls-7"><path class="cls-2" d="M89.63,162.11a7.76,7.76,0,0,1-7.76,7.76h62.61a7.76,7.76,0,0,1,0-15.52H81.87A7.75,7.75,0,0,1,89.63,162.11Z" transform="translate(-43.11 -81.58)"/></g><g class="cls-6"><path class="cls-2" d="M63.61,168.86l-.55,1h4.36A7.68,7.68,0,0,1,63.61,168.86Z" transform="translate(-43.11 -81.58)"/></g><g class="cls-7"><path class="cls-2" d="M81.87,169.87h0a7.76,7.76,0,0,0,0-15.52H72.55l-.4.57-1.26,1.89c-.35.52-.7,1.05-1,1.58s-.81,1.28-1.22,1.92-.67,1.06-1,1.6-.8,1.32-1.19,2-.63,1.06-.94,1.59l-1.19,2.1-.71,1.28a7.68,7.68,0,0,0,3.81,1Z" transform="translate(-43.11 -81.58)"/></g><g class="cls-6"><path class="cls-2" d="M81.87,169.87h0a7.76,7.76,0,0,0,0-15.52H72.55l-.4.57-1.26,1.89c-.35.52-.7,1.05-1,1.58s-.81,1.28-1.22,1.92-.67,1.06-1,1.6-.8,1.32-1.19,2-.63,1.06-.94,1.59l-1.19,2.1-.71,1.28a7.68,7.68,0,0,0,3.81,1Z" transform="translate(-43.11 -81.58)"/></g><path class="cls-2" d="M212,154.35c5.22,5.2,10.49,10.36,15.75,15.52h25.89a169.7,169.7,0,0,1,9.58-15.52Z" transform="translate(-43.11 -81.58)"/><path class="cls-2" d="M136.72,162.11a7.76,7.76,0,0,0,7.76,7.76h46L206,154.35H144.48A7.75,7.75,0,0,0,136.72,162.11Z" transform="translate(-43.11 -81.58)"/><g class="cls-7"><path class="cls-2" d="M235.71,137a7.75,7.75,0,0,1-7.76,7.76h42.49a169.29,169.29,0,0,1,14.17-15.52H228A7.75,7.75,0,0,1,235.71,137Z" transform="translate(-43.11 -81.58)"/></g><g class="cls-6"><path class="cls-2" d="M153.84,112.88a7.76,7.76,0,0,1,7.76-7.76H125.1l-.73.43-1.19.73c-.69.42-1.38.85-2.06,1.29l-1.15.73-2.2,1.45-.94.62c-1,.7-2,1.4-3.06,2.12l-.42.31c-.87.62-1.74,1.25-2.6,1.89l-1,.76-2,1.52-1.09.86c-.63.51-1.27,1-1.89,1.53l-1,.85-.5.43H161.6A7.75,7.75,0,0,1,153.84,112.88Z" transform="translate(-43.11 -81.58)"/></g><g class="cls-3"><path class="cls-2" d="M304.83,110.37l-.94-.62-2.2-1.45-1.15-.73c-.69-.44-1.37-.87-2.07-1.29l-1.18-.73-.73-.43H162.14a7.76,7.76,0,0,1,0,15.52h132q5.88-4.87,12.19-9.22Z" transform="translate(-43.11 -81.58)"/></g><g class="cls-4"><path class="cls-2" d="M169.89,112.88a7.76,7.76,0,0,0-7.75-7.76h-.54a7.76,7.76,0,1,0,0,15.52h.54A7.75,7.75,0,0,0,169.89,112.88Z" transform="translate(-43.11 -81.58)"/></g><path class="cls-2" d="M210.83,81.58a167.24,167.24,0,0,0-67,13.91H277.79A167.16,167.16,0,0,0,210.83,81.58Z" transform="translate(-43.11 -81.58)"/><g class="cls-6"><path class="cls-2" d="M77.86,235.42a7.77,7.77,0,0,1-7.76,7.76h47l15.53-15.52H70.1A7.76,7.76,0,0,1,77.86,235.42Z" transform="translate(-43.11 -81.58)"/></g><path class="cls-8" d="M77.86,235.42a7.76,7.76,0,0,0-7.76-7.76h-.54a7.76,7.76,0,0,1,0,15.52h.54A7.77,7.77,0,0,0,77.86,235.42Z" transform="translate(-43.11 -81.58)"/><g class="cls-5"><path class="cls-2" d="M184.79,260.19c-.11-2.53-.23-5.07-.38-7.59l0-.33H43.11q.14,7.86,1,15.52h141C185,265.26,184.9,262.72,184.79,260.19Z" transform="translate(-43.11 -81.58)"/></g><g class="cls-4"><path class="cls-2" d="M110.5,284.64a7.75,7.75,0,0,0,7.76,7.76H188q-1-5.2-1.67-10.49c-.22-1.67-.39-3.35-.54-5h-67.5A7.75,7.75,0,0,0,110.5,284.64Z" transform="translate(-43.11 -81.58)"/></g><g class="cls-3"><path class="cls-2" d="M59.67,284.64a7.75,7.75,0,0,1,7.75-7.75H45.34c.07.37.12.75.19,1.12l.33,1.88c.13.71.27,1.43.41,2.14s.25,1.25.38,1.88.31,1.41.46,2.11.28,1.24.43,1.86.34,1.42.51,2.13.3,1.2.46,1.8c.05.2.11.39.16.59H67.42A7.75,7.75,0,0,1,59.67,284.64Z" transform="translate(-43.11 -81.58)"/></g><g class="cls-5"><path class="cls-2" d="M59.67,284.64a7.75,7.75,0,0,0,7.75,7.76H68a7.76,7.76,0,1,0,0-15.51h-.54A7.75,7.75,0,0,0,59.67,284.64Z" transform="translate(-43.11 -81.58)"/></g><g class="cls-6"><path class="cls-2" d="M149.21,301.56a7.78,7.78,0,0,1,2.71.88,8.65,8.65,0,0,1,1.24.83,8.22,8.22,0,0,1,.61.57,7.85,7.85,0,0,1,.93,1.14,7.72,7.72,0,0,1,1.13,2.74,7.82,7.82,0,0,1-1.5,6.33,8.3,8.3,0,0,1-1.17,1.2,8.65,8.65,0,0,1-1.24.83,7.92,7.92,0,0,1-.94.42,7.65,7.65,0,0,1-2.76.52H194.3c-.83-2.56-1.62-5.14-2.35-7.72s-1.41-5.19-2-7.8H148.22a5.65,5.65,0,0,1,.59,0Z" transform="translate(-43.11 -81.58)"/></g><g class="cls-3"><path class="cls-2" d="M148.22,317a7.76,7.76,0,0,1,0-15.52H51.36c.09.27.17.54.26.8l.69,2c.22.64.44,1.27.67,1.9s.48,1.34.73,2,.47,1.25.71,1.87l.79,2L56,313.9c.28.65.56,1.3.83,2,.17.39.34.78.52,1.17Z" transform="translate(-43.11 -81.58)"/></g><g class="cls-6"><path class="cls-2" d="M200,332.48q-1-2.37-1.87-4.76H62.5l.37.71c.4.75.82,1.51,1.24,2.26.28.51.56,1,.85,1.52.44.79.9,1.56,1.36,2.34.27.46.54.93.82,1.38.53.88,1.08,1.76,1.62,2.63l.65,1c.77,1.21,1.56,2.41,2.36,3.59l0,.06H204.63Q202.17,337.93,200,332.48Z" transform="translate(-43.11 -81.58)"/></g><g class="cls-3"><path class="cls-2" d="M136.72,360.09a7.76,7.76,0,0,1,7.76-7.76h-66l.18.24c1,1.23,1.94,2.46,2.94,3.66l.59.69c.82,1,1.64,1.95,2.49,2.91.32.38.65.75,1,1.12.76.84,1.52,1.67,2.29,2.5l1,1.06q1.47,1.56,3,3.08l.26.26h52.36A7.75,7.75,0,0,1,136.72,360.09Z" transform="translate(-43.11 -81.58)"/></g><g class="cls-3"><path class="cls-2" d="M136.72,360.09a7.75,7.75,0,0,0,7.76,7.76h73.6q-2.4-3.78-4.64-7.66t-4.32-7.86H144.48A7.76,7.76,0,0,0,136.72,360.09Z" transform="translate(-43.11 -81.58)"/></g><g class="cls-4"><path class="cls-2" d="M136.72,360.09a7.75,7.75,0,0,0,7.76,7.76h73.6q-2.4-3.78-4.64-7.66t-4.32-7.86H144.48A7.76,7.76,0,0,0,136.72,360.09Z" transform="translate(-43.11 -81.58)"/></g><g class="cls-3"><path class="cls-2" d="M290.72,377c1.36,1.22,2.73,2.43,4.13,3.62q2.41,2,4.88,4t5,3.79l.41-.28A171.58,171.58,0,0,1,290.94,377Z" transform="translate(-43.11 -81.58)"/></g><g class="cls-3"><path class="cls-2" d="M165.61,384.71a7.77,7.77,0,0,1-7.75,7.76h39.59a7.76,7.76,0,1,1,0-15.52h-39.6A7.75,7.75,0,0,1,165.61,384.71Z" transform="translate(-43.11 -81.58)"/></g><g class="cls-3"><path class="cls-2" d="M150.1,384.71a7.75,7.75,0,0,1,7.75-7.76H102l1.55,1.3.78.66c.94.78,1.9,1.55,2.86,2.31l.69.52c.75.59,1.5,1.17,2.26,1.74l1.08.8,1.94,1.42,1.15.81c.68.48,1.35.95,2,1.41l1,.72c.91.61,1.82,1.21,2.74,1.8l.36.24c1,.61,1.91,1.2,2.87,1.79h34.53A7.77,7.77,0,0,1,150.1,384.71Z" transform="translate(-43.11 -81.58)"/></g><g class="cls-3"><path class="cls-2" d="M150.1,384.71a7.77,7.77,0,0,0,7.75,7.76h0a7.76,7.76,0,1,0-7.76-7.76Z" transform="translate(-43.11 -81.58)"/></g><g class="cls-4"><path class="cls-2" d="M150.1,384.71a7.77,7.77,0,0,0,7.75,7.76h0a7.76,7.76,0,1,0-7.76-7.76Z" transform="translate(-43.11 -81.58)"/></g><g class="cls-3"><path class="cls-2" d="M189.69,384.71a7.77,7.77,0,0,0,7.76,7.76h39.16c-.56-.63-1.09-1.27-1.64-1.9-1.81-2.08-3.59-4.19-5.3-6.36-1.88-2.38-3.69-4.81-5.44-7.26H197.45A7.76,7.76,0,0,0,189.69,384.71Z" transform="translate(-43.11 -81.58)"/></g><g class="cls-4"><path class="cls-2" d="M189.69,384.71a7.77,7.77,0,0,0,7.76,7.76h39.16c-.56-.63-1.09-1.27-1.64-1.9-1.81-2.08-3.59-4.19-5.3-6.36-1.88-2.38-3.69-4.81-5.44-7.26H197.45A7.76,7.76,0,0,0,189.69,384.71Z" transform="translate(-43.11 -81.58)"/></g><path class="cls-2" d="M252.28,409.6c-1.78-2-3.59-3.94-5.4-5.9H145.09a168.35,168.35,0,0,0,109,7.73l-.22-.19C253.36,410.69,252.79,410.17,252.28,409.6Z" transform="translate(-43.11 -81.58)"/><path class="cls-8" d="M77.32,235.42a7.75,7.75,0,0,0-7.76-7.76H44.47a.78.78,0,0,0,0,.16c-.06.41-.1.83-.15,1.24-.11.93-.22,1.87-.32,2.8,0,.51-.1,1-.14,1.53-.08.85-.16,1.7-.23,2.55l-.12,1.66c-.05.81-.11,1.62-.15,2.44l-.09,1.75c0,.46,0,.92,0,1.39H69.56A7.76,7.76,0,0,0,77.32,235.42Z" transform="translate(-43.11 -81.58)"/><g class="cls-4"><path class="cls-2" d="M77.32,235.42a7.75,7.75,0,0,0-7.76-7.76H44.47a.78.78,0,0,0,0,.16c-.06.41-.1.83-.15,1.24-.11.93-.22,1.87-.32,2.8,0,.51-.1,1-.14,1.53-.08.85-.16,1.7-.23,2.55l-.12,1.66c-.05.81-.11,1.62-.15,2.44l-.09,1.75c0,.46,0,.92,0,1.39H69.56A7.76,7.76,0,0,0,77.32,235.42Z" transform="translate(-43.11 -81.58)"/></g><g class="cls-6"><path class="cls-2" d="M148.22,301.5h0a5.65,5.65,0,0,1,.59,0A5.65,5.65,0,0,0,148.22,301.5Z" transform="translate(-43.11 -81.58)"/></g><g class="cls-4"><path class="cls-2" d="M148.22,301.5h0a5.65,5.65,0,0,1,.59,0A5.65,5.65,0,0,0,148.22,301.5Z" transform="translate(-43.11 -81.58)"/></g><g class="cls-3"><path class="cls-2" d="M140.46,309.26a7.77,7.77,0,0,0,7.76,7.76,7.65,7.65,0,0,0,2.76-.52,7.92,7.92,0,0,0,.94-.42,8.65,8.65,0,0,0,1.24-.83,8.3,8.3,0,0,0,1.17-1.2,7.77,7.77,0,0,0,.37-9.07,7.85,7.85,0,0,0-.93-1.14,8.22,8.22,0,0,0-.61-.57,8.65,8.65,0,0,0-1.24-.83,7.78,7.78,0,0,0-2.71-.88l-.4,0a5.65,5.65,0,0,0-.59,0h0A7.76,7.76,0,0,0,140.46,309.26Z" transform="translate(-43.11 -81.58)"/></g><g class="cls-4"><path class="cls-2" d="M140.46,309.26a7.77,7.77,0,0,0,7.76,7.76,7.65,7.65,0,0,0,2.76-.52,7.92,7.92,0,0,0,.94-.42,8.65,8.65,0,0,0,1.24-.83,8.3,8.3,0,0,0,1.17-1.2,7.77,7.77,0,0,0,.37-9.07,7.85,7.85,0,0,0-.93-1.14,8.22,8.22,0,0,0-.61-.57,8.65,8.65,0,0,0-1.24-.83,7.78,7.78,0,0,0-2.71-.88l-.4,0a5.65,5.65,0,0,0-.59,0h0A7.76,7.76,0,0,0,140.46,309.26Z" transform="translate(-43.11 -81.58)"/></g><g class="cls-6"><path class="cls-9" d="M148.22,317a7.65,7.65,0,0,0,2.76-.52" transform="translate(-43.11 -81.58)"/></g><g class="cls-3"><path class="cls-9" d="M148.22,317a7.65,7.65,0,0,0,2.76-.52" transform="translate(-43.11 -81.58)"/></g><g class="cls-4"><path class="cls-9" d="M148.22,317a7.65,7.65,0,0,0,2.76-.52" transform="translate(-43.11 -81.58)"/></g><g class="cls-6"><path class="cls-9" d="M148.22,317a7.65,7.65,0,0,0,2.76-.52" transform="translate(-43.11 -81.58)"/></g><g class="cls-3"><path class="cls-9" d="M148.22,317a7.65,7.65,0,0,0,2.76-.52" transform="translate(-43.11 -81.58)"/></g><g class="cls-3"><path class="cls-9" d="M148.22,317a7.65,7.65,0,0,0,2.76-.52" transform="translate(-43.11 -81.58)"/></g><g class="cls-4"><path class="cls-9" d="M148.22,317a7.65,7.65,0,0,0,2.76-.52" transform="translate(-43.11 -81.58)"/></g><g class="cls-5"><path class="cls-2" d="M235.71,137A7.75,7.75,0,0,0,228,129.2H93.76l-.59.58c-.83.81-1.65,1.63-2.46,2.47l-.93.95q-1.64,1.71-3.23,3.46l-.45.5c-.91,1-1.81,2-2.69,3.07l-1,1.13c-.74.88-1.46,1.76-2.18,2.65l-.57.71H228A7.75,7.75,0,0,0,235.71,137Z" transform="translate(-43.11 -81.58)"/></g><path class="cls-2" d="M263.23,154.35a169.7,169.7,0,0,0-9.58,15.52q-2.28,4.2-4.33,8.56t-3.93,9q30.76,30.92,61.42,61.92c.31,0,.61,0,.92,0h0q33.36,0,66.71.08h4.18c-.34-3.43-.62-6.77-.92-10.06s-.63-6.53-1.06-9.76a177.77,177.77,0,0,0-11.59-44.28,166,166,0,0,0-7.88-16.57q-2.21-4.07-4.66-8-3.6-5.81-7.6-11.26-2-2.73-4.1-5.37-4.21-5.3-8.83-10.24a175.48,175.48,0,0,0-14.76-14.06q-5.24-4.45-10.75-8.42l-.13.08q-6.3,4.33-12.19,9.22-4.93,4.1-9.54,8.56a169.29,169.29,0,0,0-14.17,15.52Q266.68,149.4,263.23,154.35Z" transform="translate(-43.11 -81.58)"/><g class="cls-3"><path class="cls-2" d="M119.86,219.1h-1.6a7.76,7.76,0,0,1,0-15.52H49.39q-1.08,3.85-2,7.79c-.09.4-.17.81-.27,1.22-.2.92-.41,1.84-.6,2.76-.11.53-.2,1.05-.3,1.58-.15.72-.29,1.44-.42,2.17Z" transform="translate(-43.11 -81.58)"/></g><path class="cls-2" d="M401.56,81.9a168.38,168.38,0,0,0-44.73,6l1.35,1.17c.53.55,1.1,1.07,1.61,1.63,7.58,8.43,15.61,16.51,22.61,25.39a211.78,211.78,0,0,1,29.72,51.73,203.66,203.66,0,0,1,13.65,50.58c1.25,9.69,1.3,19.53,1.89,29.31,0,.47.12.94.24,1.84H502c-.94,1.2-1.35,1.85-1.87,2.37q-47.51,47.49-95,95c-1.53,1.53-2.47,1.67-4.09.05-9.6-9.59-19.38-19-28.95-28.59q-33.5-33.63-66.86-67.4c-.31,0-.61,0-.92,0q-33.36,0-66.71-.08h-4.18c.67,6.85,1.12,13.36,2,19.82,3.24,24.62,11,47.72,24.13,68.87a171.93,171.93,0,0,0,23.81,30.29q3.67,3.63,7.57,7a171.58,171.58,0,0,0,14.2,11.12A168.27,168.27,0,1,0,401.56,81.9Z" transform="translate(-43.11 -81.58)"/></svg>