<svg id="Layer_1" data-name="Layer 1" xmlns="http://www.w3.org/2000/svg" viewBox="0 0 440.33 281.61"><defs><style>.cls-1,.cls-9{fill:none;}.cls-2{opacity:0.6;}.cls-3{fill:#727efe;}.cls-4{opacity:0.8;}.cls-5{opacity:0.9;}.cls-6{opacity:0.7;}.cls-7{opacity:0.5;}.cls-8{fill:#6881fe;}.cls-9{stroke:#727efe;stroke-linecap:round;stroke-linejoin:round;stroke-width:0;}</style></defs><path class="cls-1" d="M149.09,272.48c.13,1.4.27,2.8.45,4.2.38,2.94.85,5.87,1.4,8.77q-.83-4.36-1.4-8.77C149.36,275.28,149.22,273.88,149.09,272.48Z" transform="translate(-29.84 -109.2)"/><path class="cls-1" d="M310.32,249.49c-.56-5.73-.94-11.17-1.65-16.57-.68-5.15-1.59-10.21-2.76-15.19,1.17,5,2.08,10,2.76,15.19C309.38,238.32,309.76,243.76,310.32,249.49Z" transform="translate(-29.84 -109.2)"/><path class="cls-1" d="M185.8,362.2c-1.57-2-3.08-4-4.55-6.07h0C182.72,358.18,184.23,360.21,185.8,362.2Z" transform="translate(-29.84 -109.2)"/><path class="cls-1" d="M205.85,183H184.2q3.63,3.57,7.24,7.16h10.79C203.37,187.74,204.57,185.35,205.85,183Z" transform="translate(-29.84 -109.2)"/><path class="cls-1" d="M237,356.13c-2.17-1.89-4.28-3.86-6.32-5.88,2,2,4,4,6.14,5.88Z" transform="translate(-29.84 -109.2)"/><g class="cls-2"><path class="cls-3" d="M86.17,279a6.48,6.48,0,0,1,6.49-6.48h-42a6.49,6.49,0,0,1,0,13H92.66A6.48,6.48,0,0,1,86.17,279Z" transform="translate(-29.84 -109.2)"/></g><g class="cls-4"><path class="cls-3" d="M94,211.19a6.49,6.49,0,1,1,0,13h17.84q6.5-6.48,13-13Z" transform="translate(-29.84 -109.2)"/></g><g class="cls-2"><path class="cls-3" d="M100.49,217.68A6.5,6.5,0,0,0,94,211.19H92.66a6.49,6.49,0,1,0,0,13H94A6.49,6.49,0,0,0,100.49,217.68Z" transform="translate(-29.84 -109.2)"/></g><g class="cls-4"><path class="cls-3" d="M100.49,217.68A6.5,6.5,0,0,0,94,211.19H92.66a6.49,6.49,0,1,0,0,13H94A6.49,6.49,0,0,0,100.49,217.68Z" transform="translate(-29.84 -109.2)"/></g><g class="cls-5"><path class="cls-3" d="M122.4,196.65a6.48,6.48,0,0,0-6.48-6.48h-73a138.59,138.59,0,0,0-5.28,13h78.28A6.48,6.48,0,0,0,122.4,196.65Z" transform="translate(-29.84 -109.2)"/></g><g class="cls-6"><path class="cls-3" d="M191.44,190.17c1,1,2,2,2.95,2.93,1.52,1.52,3,3.06,4.55,4.58h0c1-2.54,2.12-5.05,3.29-7.51Z" transform="translate(-29.84 -109.2)"/></g><g class="cls-6"><path class="cls-3" d="M115.92,190.17a6.49,6.49,0,0,1,0,13h17l13-13Z" transform="translate(-29.84 -109.2)"/></g><g class="cls-7"><path class="cls-3" d="M68.72,176.52A6.49,6.49,0,0,1,62.24,183h52.33a6.49,6.49,0,0,1,0-13H62.24A6.48,6.48,0,0,1,68.72,176.52Z" transform="translate(-29.84 -109.2)"/></g><g class="cls-6"><path class="cls-3" d="M47,182.17c-.16.28-.31.56-.46.84h3.65A6.48,6.48,0,0,1,47,182.17Z" transform="translate(-29.84 -109.2)"/></g><g class="cls-7"><path class="cls-3" d="M62.24,183h0a6.49,6.49,0,0,0,0-13h-7.8l-.33.47-1,1.58-.87,1.32c-.35.53-.68,1.07-1,1.61l-.83,1.33c-.34.55-.67,1.11-1,1.66l-.78,1.33c-.34.58-.67,1.17-1,1.76-.2.36-.41.71-.6,1.07a6.48,6.48,0,0,0,3.19.84Z" transform="translate(-29.84 -109.2)"/></g><g class="cls-6"><path class="cls-3" d="M62.24,183h0a6.49,6.49,0,0,0,0-13h-7.8l-.33.47-1,1.58-.87,1.32c-.35.53-.68,1.07-1,1.61l-.83,1.33c-.34.55-.67,1.11-1,1.66l-.78,1.33c-.34.58-.67,1.17-1,1.76-.2.36-.41.71-.6,1.07a6.48,6.48,0,0,0,3.19.84Z" transform="translate(-29.84 -109.2)"/></g><path class="cls-3" d="M205.85,183a140.68,140.68,0,0,1,8-13H171q6.54,6.51,13.16,13Z" transform="translate(-29.84 -109.2)"/><path class="cls-3" d="M108.09,176.52a6.49,6.49,0,0,0,6.48,6.49H153l13-13H114.58A6.48,6.48,0,0,0,108.09,176.52Z" transform="translate(-29.84 -109.2)"/><g class="cls-7"><path class="cls-3" d="M184.36,149a6.49,6.49,0,1,1,0,13h35.52a142.67,142.67,0,0,1,11.85-13Z" transform="translate(-29.84 -109.2)"/></g><g class="cls-6"><path class="cls-3" d="M122.4,135.37a6.49,6.49,0,0,1,6.49-6.49H98.38l-.61.36-1,.61-1.72,1.07-1,.62-1.83,1.21-.79.52c-.86.58-1.71,1.17-2.56,1.77l-.34.26-2.18,1.58-.84.64-1.66,1.27-.91.72c-.53.42-1.06.84-1.58,1.27l-.88.72-.42.35h48.8A6.49,6.49,0,0,1,122.4,135.37Z" transform="translate(-29.84 -109.2)"/></g><g class="cls-2"><path class="cls-3" d="M248.63,133.27l-.79-.52c-.6-.41-1.21-.82-1.83-1.21l-1-.62-1.73-1.07-1-.61-.61-.36H129.34a6.49,6.49,0,1,1,0,13H239.71q4.9-4.08,10.19-7.7Z" transform="translate(-29.84 -109.2)"/></g><g class="cls-4"><path class="cls-3" d="M135.83,135.37a6.49,6.49,0,0,0-6.49-6.49h-.45a6.49,6.49,0,1,0,0,13h.45A6.49,6.49,0,0,0,135.83,135.37Z" transform="translate(-29.84 -109.2)"/></g><path class="cls-3" d="M170.05,109.2a139.69,139.69,0,0,0-56,11.63H226A139.68,139.68,0,0,0,170.05,109.2Z" transform="translate(-29.84 -109.2)"/><g class="cls-6"><path class="cls-3" d="M52.4,231.32a6.49,6.49,0,0,1,0,13H91.7l13-13Z" transform="translate(-29.84 -109.2)"/></g><path class="cls-8" d="M58.88,237.81a6.49,6.49,0,0,0-6.48-6.49H52a6.49,6.49,0,1,1,0,13h.45A6.48,6.48,0,0,0,58.88,237.81Z" transform="translate(-29.84 -109.2)"/><g class="cls-5"><path class="cls-3" d="M147.93,251.9H29.84c.07,4.38.35,8.7.81,13H148.57c-.22-4.23-.36-8.47-.61-12.7Z" transform="translate(-29.84 -109.2)"/></g><g class="cls-4"><path class="cls-3" d="M149.09,272.48H92.66a6.49,6.49,0,1,0,0,13h58.28c-.55-2.9-1-5.83-1.4-8.77C149.36,275.28,149.22,273.88,149.09,272.48Z" transform="translate(-29.84 -109.2)"/></g><g class="cls-2"><path class="cls-3" d="M43.67,279a6.49,6.49,0,0,1,6.49-6.48H31.7l.15.94c.1.52.19,1,.28,1.57s.23,1.19.35,1.79.2,1,.31,1.57l.39,1.77c.12.51.23,1,.35,1.55s.29,1.18.44,1.78.25,1,.38,1.5c0,.17.09.33.13.5H50.16A6.49,6.49,0,0,1,43.67,279Z" transform="translate(-29.84 -109.2)"/></g><g class="cls-5"><path class="cls-3" d="M57.09,279a6.48,6.48,0,0,0-6.48-6.48h-.45a6.49,6.49,0,1,0,0,13h.45A6.48,6.48,0,0,0,57.09,279Z" transform="translate(-29.84 -109.2)"/></g><g class="cls-6"><path class="cls-3" d="M117.71,293.05a4,4,0,0,1,.49,0,1.83,1.83,0,0,1,.33,0,6.24,6.24,0,0,1,2.27.73,6,6,0,0,1,1,.7,4.6,4.6,0,0,1,.52.47,6.38,6.38,0,0,1,1.69,5.86,6.33,6.33,0,0,1-1.23,2.68,7.12,7.12,0,0,1-1,1,6,6,0,0,1-1,.69,5.63,5.63,0,0,1-.79.36,6.48,6.48,0,0,1-2.3.43h38.52c-.16-.5-.3-1-.46-1.51-1.19-3.79-2.28-7.61-3.21-11.47Z" transform="translate(-29.84 -109.2)"/></g><g class="cls-2"><path class="cls-3" d="M124,300.87a6.33,6.33,0,0,1-1.23,2.68A6.33,6.33,0,0,0,124,300.87Z" transform="translate(-29.84 -109.2)"/></g><g class="cls-2"><path class="cls-3" d="M117.71,306a6.49,6.49,0,0,1,0-13h-81c.07.23.14.45.22.68l.57,1.68.56,1.59c.2.55.41,1.11.62,1.66s.39,1,.59,1.56l.66,1.66.63,1.54.69,1.63c.14.33.29.65.43,1h76a6.48,6.48,0,0,0,2.3-.43A6.48,6.48,0,0,1,117.71,306Z" transform="translate(-29.84 -109.2)"/></g><g class="cls-6"><path class="cls-3" d="M159.39,315H46l.31.6c.34.63.69,1.26,1,1.89l.71,1.27c.37.66.75,1.31,1.14,2l.68,1.15c.45.74.9,1.47,1.36,2.19l.54.87c.64,1,1.3,2,2,3l0,.05H164.87q-2.07-4.44-3.92-9C160.42,317.63,159.9,316.31,159.39,315Z" transform="translate(-29.84 -109.2)"/></g><g class="cls-2"><path class="cls-3" d="M108.09,342a6.49,6.49,0,0,1,6.49-6.49H59.36l.15.2q1.2,1.54,2.46,3.06c.16.2.33.39.49.58.68.82,1.38,1.63,2.08,2.43l.83.93c.62.71,1.26,1.41,1.9,2.1.28.29.55.59.82.88.83.87,1.66,1.73,2.5,2.58l.21.22h43.78A6.49,6.49,0,0,1,108.09,342Z" transform="translate(-29.84 -109.2)"/></g><g class="cls-2"><path class="cls-3" d="M168.62,335.55h-54a6.49,6.49,0,0,0,0,13h61.53Q172.09,342.2,168.62,335.55Z" transform="translate(-29.84 -109.2)"/></g><g class="cls-4"><path class="cls-3" d="M168.62,335.55h-54a6.49,6.49,0,0,0,0,13h61.53Q172.09,342.2,168.62,335.55Z" transform="translate(-29.84 -109.2)"/></g><g class="cls-2"><path class="cls-3" d="M236.84,356.13c1.13,1,2.28,2,3.45,3q4,3.42,8.26,6.5l.34-.24A141.89,141.89,0,0,1,237,356.13Z" transform="translate(-29.84 -109.2)"/></g><g class="cls-2"><path class="cls-3" d="M152.38,362.62a6.48,6.48,0,0,1,6.48-6.49H79l1.29,1.09.66.55c.79.65,1.59,1.29,2.39,1.93l.58.44c.62.49,1.25,1,1.88,1.45l.91.67,1.62,1.18,1,.69c.56.39,1.12.79,1.69,1.17l.88.6,2.29,1.51.3.2c.79.51,1.59,1,2.4,1.49h28.87a6.49,6.49,0,1,1,6.49-6.48,6.49,6.49,0,0,1-6.49,6.48h33.1A6.48,6.48,0,0,1,152.38,362.62Z" transform="translate(-29.84 -109.2)"/></g><g class="cls-2"><path class="cls-3" d="M132.25,362.62a6.49,6.49,0,1,0-6.49,6.48h0A6.49,6.49,0,0,0,132.25,362.62Z" transform="translate(-29.84 -109.2)"/></g><g class="cls-4"><path class="cls-3" d="M132.25,362.62a6.49,6.49,0,1,0-6.49,6.48h0A6.49,6.49,0,0,0,132.25,362.62Z" transform="translate(-29.84 -109.2)"/></g><g class="cls-2"><path class="cls-3" d="M181.25,356.13H158.86a6.49,6.49,0,0,0,0,13H191.6q-1.5-1.68-2.95-3.41c-1-1.14-1.92-2.31-2.85-3.49C184.23,360.21,182.72,358.18,181.25,356.13Z" transform="translate(-29.84 -109.2)"/></g><g class="cls-4"><path class="cls-3" d="M181.25,356.13H158.86a6.49,6.49,0,0,0,0,13H191.6q-1.5-1.68-2.95-3.41c-1-1.14-1.92-2.31-2.85-3.49C184.23,360.21,182.72,358.18,181.25,356.13Z" transform="translate(-29.84 -109.2)"/></g><path class="cls-3" d="M200.18,378.5H115.09A140.81,140.81,0,0,0,206.23,385l-.19-.17c-.44-.45-.92-.89-1.34-1.36Q202.47,380.94,200.18,378.5Z" transform="translate(-29.84 -109.2)"/><path class="cls-8" d="M58.44,237.81A6.5,6.5,0,0,0,52,231.32H31a.69.69,0,0,0,0,.13c-.05.35-.08.7-.12,1-.1.78-.19,1.56-.27,2.35,0,.42-.08.85-.12,1.28-.07.7-.13,1.41-.19,2.12,0,.47-.07.93-.1,1.39,0,.68-.09,1.36-.13,2,0,.49-.05,1-.07,1.46s0,.78,0,1.16H52A6.49,6.49,0,0,0,58.44,237.81Z" transform="translate(-29.84 -109.2)"/><g class="cls-4"><path class="cls-3" d="M58.44,237.81A6.5,6.5,0,0,0,52,231.32H31a.69.69,0,0,0,0,.13c-.05.35-.08.7-.12,1-.1.78-.19,1.56-.27,2.35,0,.42-.08.85-.12,1.28-.07.7-.13,1.41-.19,2.12,0,.47-.07.93-.1,1.39,0,.68-.09,1.36-.13,2,0,.49-.05,1-.07,1.46s0,.78,0,1.16H52A6.49,6.49,0,0,0,58.44,237.81Z" transform="translate(-29.84 -109.2)"/></g><g class="cls-6"><path class="cls-3" d="M117.71,293.05h0a4,4,0,0,1,.49,0A4,4,0,0,0,117.71,293.05Z" transform="translate(-29.84 -109.2)"/></g><g class="cls-4"><path class="cls-3" d="M117.71,293.05h0a4,4,0,0,1,.49,0A4,4,0,0,0,117.71,293.05Z" transform="translate(-29.84 -109.2)"/></g><g class="cls-2"><path class="cls-3" d="M111.22,299.54A6.47,6.47,0,0,0,120,305.6a5.63,5.63,0,0,0,.79-.36,6,6,0,0,0,1-.69,7.12,7.12,0,0,0,1-1,6.33,6.33,0,0,0,1.23-2.68,6.38,6.38,0,0,0-1.69-5.86,4.6,4.6,0,0,0-.52-.47,6,6,0,0,0-1-.7,6.24,6.24,0,0,0-2.27-.73,1.83,1.83,0,0,0-.33,0,4,4,0,0,0-.49,0h0A6.5,6.5,0,0,0,111.22,299.54Z" transform="translate(-29.84 -109.2)"/></g><g class="cls-4"><path class="cls-3" d="M111.22,299.54A6.47,6.47,0,0,0,120,305.6a5.63,5.63,0,0,0,.79-.36,6,6,0,0,0,1-.69,7.12,7.12,0,0,0,1-1,6.33,6.33,0,0,0,1.23-2.68,6.38,6.38,0,0,0-1.69-5.86,4.6,4.6,0,0,0-.52-.47,6,6,0,0,0-1-.7,6.24,6.24,0,0,0-2.27-.73,1.83,1.83,0,0,0-.33,0,4,4,0,0,0-.49,0h0A6.5,6.5,0,0,0,111.22,299.54Z" transform="translate(-29.84 -109.2)"/></g><g class="cls-6"><path class="cls-3" d="M124.19,299.54a6.45,6.45,0,0,1-.15,1.33A6.45,6.45,0,0,0,124.19,299.54Z" transform="translate(-29.84 -109.2)"/></g><g class="cls-2"><path class="cls-3" d="M124.19,299.54a6.45,6.45,0,0,1-.15,1.33A6.45,6.45,0,0,0,124.19,299.54Z" transform="translate(-29.84 -109.2)"/></g><g class="cls-2"><path class="cls-3" d="M124.19,299.54a6.45,6.45,0,0,1-.15,1.33A6.45,6.45,0,0,0,124.19,299.54Z" transform="translate(-29.84 -109.2)"/></g><g class="cls-4"><path class="cls-3" d="M124.19,299.54a6.45,6.45,0,0,1-.15,1.33A6.45,6.45,0,0,0,124.19,299.54Z" transform="translate(-29.84 -109.2)"/></g><g class="cls-6"><path class="cls-9" d="M120.8,305.24a5.63,5.63,0,0,1-.79.36" transform="translate(-29.84 -109.2)"/></g><g class="cls-2"><path class="cls-9" d="M120.8,305.24a5.63,5.63,0,0,1-.79.36" transform="translate(-29.84 -109.2)"/></g><g class="cls-4"><path class="cls-9" d="M120.8,305.24a5.63,5.63,0,0,1-.79.36" transform="translate(-29.84 -109.2)"/></g><g class="cls-6"><path class="cls-9" d="M120.8,305.24a5.63,5.63,0,0,1-.79.36" transform="translate(-29.84 -109.2)"/></g><g class="cls-6"><path class="cls-9" d="M120.8,305.24a5.63,5.63,0,0,1-.79.36" transform="translate(-29.84 -109.2)"/></g><g class="cls-4"><path class="cls-9" d="M120.8,305.24a5.63,5.63,0,0,1-.79.36" transform="translate(-29.84 -109.2)"/></g><g class="cls-2"><path class="cls-9" d="M120.8,305.24a5.63,5.63,0,0,1-.79.36" transform="translate(-29.84 -109.2)"/></g><g class="cls-4"><path class="cls-9" d="M120.8,305.24a5.63,5.63,0,0,1-.79.36" transform="translate(-29.84 -109.2)"/></g><g class="cls-6"><path class="cls-9" d="M118.53,293.11a1.83,1.83,0,0,0-.33,0" transform="translate(-29.84 -109.2)"/></g><g class="cls-2"><path class="cls-9" d="M118.53,293.11a1.83,1.83,0,0,0-.33,0" transform="translate(-29.84 -109.2)"/></g><g class="cls-4"><path class="cls-9" d="M118.53,293.11a1.83,1.83,0,0,0-.33,0" transform="translate(-29.84 -109.2)"/></g><g class="cls-6"><path class="cls-9" d="M118.53,293.11a1.83,1.83,0,0,0-.33,0" transform="translate(-29.84 -109.2)"/></g><g class="cls-6"><path class="cls-9" d="M118.53,293.11a1.83,1.83,0,0,0-.33,0" transform="translate(-29.84 -109.2)"/></g><g class="cls-4"><path class="cls-9" d="M118.53,293.11a1.83,1.83,0,0,0-.33,0" transform="translate(-29.84 -109.2)"/></g><g class="cls-2"><path class="cls-9" d="M118.53,293.11a1.83,1.83,0,0,0-.33,0" transform="translate(-29.84 -109.2)"/></g><g class="cls-4"><path class="cls-9" d="M118.53,293.11a1.83,1.83,0,0,0-.33,0" transform="translate(-29.84 -109.2)"/></g><g class="cls-5"><path class="cls-3" d="M190.85,155.5a6.49,6.49,0,0,0-6.49-6.49H72.17l-.49.48c-.69.68-1.37,1.37-2.05,2.07l-.78.79c-.91,1-1.82,1.92-2.7,2.89l-.38.43c-.76.84-1.51,1.7-2.25,2.56l-.8,1c-.61.73-1.22,1.47-1.82,2.21l-.48.59H184.36A6.49,6.49,0,0,0,190.85,155.5Z" transform="translate(-29.84 -109.2)"/></g><path class="cls-3" d="M202.23,190.17c-1.17,2.46-2.26,5-3.29,7.51q25.71,25.84,51.35,51.76l.77,0q27.88,0,55.77.07h3.49c-.56-5.73-.94-11.17-1.65-16.57-.68-5.15-1.59-10.21-2.76-15.19a140.48,140.48,0,0,0-17.42-42.39,143.48,143.48,0,0,0-25.22-30.45c-1.4-1.28-2.82-2.54-4.28-3.78q-4.38-3.71-9-7l-.1.07q-5.28,3.63-10.19,7.7c-2.76,2.29-5.41,4.68-8,7.16a142.67,142.67,0,0,0-11.85,13q-3.15,3.92-6,8.06a140.68,140.68,0,0,0-8,13C204.57,185.35,203.37,187.74,202.23,190.17Z" transform="translate(-29.84 -109.2)"/><g class="cls-2"><path class="cls-3" d="M86.17,217.68a6.49,6.49,0,0,1,6.49-6.49H35.09q-.92,3.23-1.68,6.51c-.08.34-.15.68-.22,1-.17.77-.35,1.54-.51,2.31-.09.44-.17.88-.25,1.32-.12.61-.24,1.21-.35,1.81H92.66A6.48,6.48,0,0,1,86.17,217.68Z" transform="translate(-29.84 -109.2)"/></g><path class="cls-3" d="M329.5,109.47a141,141,0,0,0-37.39,5l1.13,1c.44.45.92.89,1.34,1.36,6.34,7,13.05,13.8,18.9,21.23a176.93,176.93,0,0,1,24.85,43.25,169.89,169.89,0,0,1,11.41,42.28c1,8.1,1.09,16.33,1.58,24.5,0,.4.1.79.2,1.54h62c-.79,1-1.13,1.54-1.57,2q-39.72,39.69-79.43,79.4c-1.28,1.28-2.07,1.4-3.42,0-8-8-16.2-15.86-24.2-23.9q-28-28.11-55.9-56.34l-.77,0q-27.89,0-55.77-.06H189c.56,5.72.94,11.16,1.65,16.56a142.39,142.39,0,0,0,40.09,82.9c2,2,4.15,4,6.32,5.88a141.89,141.89,0,0,0,11.87,9.29A140.67,140.67,0,1,0,329.5,109.47Z" transform="translate(-29.84 -109.2)"/></svg>