<svg xmlns="http://www.w3.org/2000/svg" role="img" viewBox="-25.48 -25.48 1324.96 252.96"><g clip-path="url(#clip0_650_2)"><path fill="#FF6B00" d="M254.749 162.421H427.06V177.60999999999999H254.749zM1101.88 162.421H1274.3390000000002V177.60999999999999H1101.88z"/><path d="M303.196 77.9336C308.091 78.0307 312.94 76.9623 317.342 74.8165 321.743 72.6708 325.572 69.5092 328.511 65.5925L342.117 79.5158C331.359 91.5404 319.018 97.5527 304.461 97.5527 297.893 97.8033 291.341 96.7276 285.197 94.3898 279.054 92.0519 273.444 88.4999 268.704 83.9459 264.088 79.4993 260.462 74.1288 258.063 68.1854 255.664 62.242 254.545 55.8593 254.781 49.4542 254.601 42.9807 255.774 36.5408 258.226 30.5469 260.678 24.553 264.355 19.1372 269.02 14.6461 274.039 9.91118 279.965 6.24217 286.44 3.86051 292.916 1.47885 299.806.433923 306.697.788795 313.587 1.14367 320.334 2.89098 326.531 5.92527 332.727 8.95957 338.245 13.2179 342.75 18.4433L329.776 33.3159C326.918 29.4676 323.195 26.3455 318.907 24.2017 314.62 22.0579 309.888 20.9525 305.094 20.9748 297.622 20.8311 290.377 23.5478 284.842 28.5693 281.97 31.2079 279.715 34.4477 278.238 38.0577 276.761 41.6676 276.099 45.559 276.299 49.4542 276.098 53.3412 276.697 57.2278 278.058 60.8743 279.418 64.5208 281.512 67.8497 284.209 70.6555 289.416 75.3534 296.183 77.9475 303.196 77.9336zM358.571 96.2866V2.30469H379.456V77.6168H419.644V96.2866H358.571zM511.411 83.3132C501.903 92.2577 489.34 97.2378 476.286 97.2378 463.232 97.2378 450.67 92.2577 441.162 83.3132 436.525 78.8667 432.864 73.5038 430.413 67.5657 427.961 61.6275 426.772 55.2441 426.922 48.8216 426.743 42.3951 427.918 36.0029 430.372 30.0605 432.825 24.118 436.501 18.7584 441.162 14.3299 450.67 5.38541 463.232.405273 476.286.405273 489.34.405273 501.903 5.38541 511.411 14.3299 516.048 18.7764 519.708 24.1393 522.16 30.0775 524.611 36.0156 525.8 42.399 525.651 48.8216 525.83 55.248 524.654 61.6402 522.201 67.5826 519.748 73.5251 516.071 78.8847 511.411 83.3132zM504.133 48.8216C504.191 40.87 501.254 33.1879 495.905 27.3038 493.387 24.5155 490.311 22.2867 486.877 20.7612 483.443 19.2357 479.727 18.4474 475.97 18.4474 472.212 18.4474 468.497 19.2357 465.063 20.7612 461.629 22.2867 458.553 24.5155 456.034 27.3038 450.625 33.1504 447.678 40.8575 447.807 48.8216 447.748 56.7731 450.686 64.4552 456.034 70.3393 458.553 73.1276 461.629 75.3564 465.063 76.882 468.497 78.4075 472.212 79.1957 475.97 79.1957 479.727 79.1957 483.443 78.4075 486.877 76.882 490.311 75.3564 493.387 73.1276 495.905 70.3393 498.646 67.4851 500.786 64.1101 502.199 60.4141 503.613 56.7181 504.27 52.7761 504.133 48.8216zM568.368 72.2373C570.038 74.4015 572.203 76.1342 574.68 77.2903 577.158 78.4464 579.876 78.9924 582.608 78.8825 585.299 79.0254 587.983 78.4922 590.415 77.3314 592.847 76.1707 594.949 74.4194 596.531 72.2373 600.165 67.0687 601.949 60.8252 601.594 54.5168V2.62109H622.479V55.1497C622.479 68.7565 618.681 79.199 611.087 86.477 607.264 90.1434 602.748 93.0112 597.804 94.9128 592.86 96.8144 587.586 97.7117 582.291 97.5523 576.949 97.7118 571.627 96.8157 566.632 94.9152 561.636 93.0147 557.064 90.1472 553.179 86.477 545.584 79.199 541.787 68.7565 541.787 55.1497V2.62109H562.672V54.5168C562.665 60.8748 564.658 67.074 568.368 72.2373zM716.147 14.6458C725.007 22.8731 729.754 34.2649 729.754 48.821 729.754 63.3771 725.323 75.0853 716.78 83.6291 708.236 92.1729 694.629 96.2866 676.908 96.2866H644.315V2.30469H677.541C694.313 2.30469 707.286 6.41838 716.147 14.6458zM700.958 70.6552C706.021 65.9086 708.552 58.6306 708.552 49.4539 708.552 40.2772 706.021 32.9991 700.958 28.2526 695.895 23.506 687.984 20.6581 677.225 20.6581H665.517V77.9333H678.807C686.841 78.3612 694.743 75.7646 700.958 70.6552zM849.05 2.30469H869.935V96.2866H849.05L804.116 37.4293V96.2866H783.231V2.30469H802.851L849.05 62.7443V2.30469zM960.12 96.2866L951.26 76.0346H911.705L902.845 96.2866H880.378L920.882 2.30469H941.134L981.638 96.2866H960.12zM931.957 30.4676L920.249 57.6813H943.665L931.957 30.4676zM1026.57 20.658V96.603H1005.69V20.658H979.106V2.62109H1053.47V20.658H1026.57zM1068.34 2.30469H1089.23V96.2866H1068.34V2.30469zM1147.13 62.1114L1171.18 2.30469H1193.97L1156.31 96.2866H1138.59L1100.93 2.30469H1123.72L1147.13 62.1114zM1272.76 2.30469V20.9745H1225.93V40.2772H1268.01V58.3141H1225.93V77.9332H1274.34V96.6031H1205.04V2.62112H1272.76V2.30469zM28.8427 135.302H.046875V202.924H67.4481V173.844H28.8427V135.302zM173.772 135.618V173.844H135.167V202.924H202.568V135.302H173.456L173.772 135.618zM.046875 68.028H29.1591L28.8427 67.7115V29.4859H67.4481V.405273H.046875V68.028zM135.167.405273V29.4859H173.772V68.028H202.568V.405273H135.167z"/><path d="M131.368 68.028L92.7623 29.4859H135.165V.405273H67.4473V29.4859L106.053 68.028H131.368zM96.5595 135.302H71.2445L103.205 167.23 109.533 173.844H67.4473V202.924H135.165V173.527L115.862 154.541 96.5595 135.302zM173.772 68.0278V110.051L167.127 103.406 135.167 71.477V97.0768L154.153 116.063 173.456 135.334H202.568V68.0278H173.772zM67.4481 106.253L29.1591 68.0278H.046875V135.302H28.8427V93.2795L67.4481 131.853V106.253z" opacity=".65"/><path d="M498.976 195.334H513.557L492.9 143.16H478.319L457.662 195.334H472.243L475.433 187.36H495.786L498.976 195.334ZM479.306 177.563L485.61 161.538L491.913 177.563H479.306ZM523.061 195.334H536.047V179.006H547.287C558.831 179.006 567.109 171.639 567.109 161.083C567.109 150.526 558.831 143.16 547.287 143.16H523.061V195.334ZM536.047 167.158V155.007H546.148C550.629 155.007 553.742 157.437 553.742 161.083C553.742 164.728 550.629 167.158 546.148 167.158H536.047ZM577.682 195.334H590.668V179.006H601.908C613.452 179.006 621.73 171.639 621.73 161.083C621.73 150.526 613.452 143.16 601.908 143.16H577.682V195.334ZM590.668 167.158V155.007H600.769C605.25 155.007 608.364 157.437 608.364 161.083C608.364 164.728 605.25 167.158 600.769 167.158H590.668ZM654.44 195.334H673.502C691.425 195.334 704.108 184.474 704.108 169.209C704.108 153.944 691.425 143.16 673.502 143.16H654.44V195.334ZM667.426 183.563V154.931H675.476C684.438 154.931 690.741 160.855 690.741 169.209C690.741 177.563 684.438 183.563 675.476 183.563H667.426ZM756.006 154.779V143.16H714.92V195.334H756.006V183.714H727.906V174.525H753.424V162.905H727.906V154.779H756.006ZM780.822 183.714V143.16H767.835V195.334H805.959V183.714H780.822ZM816.152 195.334H829.139V143.16H816.152V195.334ZM880.026 143.16L866.736 176.803L853.369 143.16H838.788L859.369 195.334H874.026L894.607 143.16H880.026ZM945.343 154.779V143.16H904.257V195.334H945.343V183.714H917.244V174.525H942.761V162.905H917.244V154.779H945.343ZM1001.52 195.334L989.145 177.791C996.512 175.209 1001.22 169.057 1001.22 161.083C1001.22 150.526 992.943 143.16 981.399 143.16H957.172V195.334H970.159V179.006H975.323L986.791 195.334H1001.52ZM970.159 155.007H980.26C984.741 155.007 987.854 157.437 987.854 161.083C987.854 164.728 984.741 167.158 980.26 167.158H970.159V155.007ZM1028.48 195.334H1041.55V177.335L1061.75 143.16H1047.32L1035.01 165.184L1023.24 143.16H1008.28L1028.48 177.335V195.334Z"/></g><defs><clipPath id="clip0_650_2"><path fill="#fff" d="M0 0H1276.19V202.52H0z" transform="translate(.047 .405)"/></clipPath></defs></svg>