<svg xmlns="http://www.w3.org/2000/svg" role="img" viewBox="-10.06 -10.06 523.12 99.62"><g clip-path="url(#clip0_7839_15733)"><path fill="#339cff" d="M101 64h38v6h-38zm364 0h38v6h-38z"/><path d="M119.75 30.6255c1.934.0384 3.85-.3837 5.588-1.2313a12.19694 12.19694 0 0 0 4.412-3.6437l5.375 5.5c-4.25 4.75-9.125 7.125-14.875 7.125-2.594.099-5.182-.3259-7.609-1.2494a19.33052 19.33052 0 0 1-6.516-4.1256c-1.823-1.7565-3.255-3.8779-4.203-6.2257a17.99677 17.99677 0 0 1-1.297-7.3993c-.071-2.5572.393-5.1011 1.361-7.4688.969-2.36771 2.421-4.50709 4.264-6.28117a20.18394 20.18394 0 0 1 6.882-4.26055c2.558-.94081 5.28-1.35358 8.001-1.2134 2.722.14019 5.388.83041 7.835 2.02903 2.448 1.19861 4.628 2.88076 6.407 4.94492l-5.125 5.87497c-1.129-1.5201-2.599-2.7535-4.293-3.60031a12.0771 12.0771 0 0 0-5.457-1.27466c-2.951-.05679-5.813 1.01639-8 2.99997-1.134 1.0423-2.025 2.3221-2.608 3.7481-.584 1.4261-.845 2.9632-.767 4.5019-.079 1.5355.158 3.0708.695 4.5112a11.26449 11.26449 0 0 0 2.43 3.8638c2.057 1.8558 4.73 2.8805 7.5 2.875zm21.875 7.25V.75049h8.25V30.5005h15.875v7.375h-24.125zM202 32.7505c-3.756 3.5333-8.718 5.5006-13.875 5.5006-5.156 0-10.119-1.9673-13.875-5.5006a18.30481 18.30481 0 0 1-4.246-6.2206c-.968-2.3457-1.438-4.8673-1.379-7.4044-.071-2.5386.394-5.0636 1.363-7.411a18.09718 18.09718 0 0 1 4.262-6.21397C178.006 1.96727 182.969 0 188.125 0c5.157 0 10.119 1.96727 13.875 5.50053a18.2764 18.2764 0 0 1 4.246 6.22067c.969 2.3457 1.438 4.8673 1.379 7.4043.071 2.5386-.393 5.0637-1.362 7.4111-.97 2.3474-2.422 4.4646-4.263 6.2139zm-2.875-13.625c.023-3.141-1.137-6.1756-3.25-8.5a10.61576 10.61576 0 0 0-3.566-2.58446A10.61745 10.61745 0 0 0 188 7.12707c-1.484 0-2.952.31136-4.308.91397a10.60973 10.60973 0 0 0-3.567 2.58446c-2.137 2.3096-3.301 5.354-3.25 8.5-.023 3.1411 1.137 6.1757 3.25 8.5.995 1.1015 2.21 1.9819 3.567 2.5845 1.356.6026 2.824.914 4.308.914s2.952-.3114 4.309-.914c1.356-.6026 2.571-1.483 3.566-2.5845 1.083-1.1275 1.928-2.4607 2.486-3.9207.559-1.46.818-3.0171.764-4.5793zm25.375 9.2499a6.7621 6.7621 0 0 0 2.494 1.996c.978.4567 2.052.6724 3.131.629a6.37559 6.37559 0 0 0 3.084-.6128c.961-.4585 1.791-1.1503 2.416-2.0122 1.436-2.0418 2.14-4.5081 2-7V.87537h8.25V21.6254c0 5.375-1.5 9.5-4.5 12.375-1.51 1.4483-3.294 2.5811-5.247 3.3323A15.75016 15.75016 0 0 1 230 38.3754c-2.11.063-4.213-.291-6.186-1.0418a16.05367 16.05367 0 0 1-5.314-3.3332c-3-2.875-4.5-7-4.5-12.375V.87537h8.25V21.3754c-.003 2.5115.785 4.9603 2.25 7zm58.375-22.74991c3.5 3.25 5.375 7.75001 5.375 13.50001s-1.75 10.375-5.125 13.75-8.75 5-15.75 5H254.5V.75049h13.125c6.625 0 11.75 1.625 15.25 4.875zm-6 22.12501c2-1.875 3-4.75 3-8.375s-1-6.5-3-8.375c-2-1.87501-5.125-3.00001-9.375-3.00001h-4.625V30.6255h5.25c3.173.169 6.295-.8567 8.75-2.875zm58.5-27.00001h8.25V37.8755h-8.25l-17.75-23.25v23.25h-8.25V.75049h7.75l18.25 23.87501V.75049zM379.25 37.8755l-3.5-8h-15.625l-3.5 8h-8.875l16-37.12501h8l16 37.12501h-8.5zm-11.125-26l-4.625 10.75h9.25l-4.625-10.75zM405.5 8.00037V38.0004h-8.25V8.00037h-10.5v-7.125h29.375v7.125H405.5zM422 .75049h8.25V37.8755H422V.75049zm31.125 23.62501l9.5-23.62501h9L456.75 37.8755h-7L434.875.75049h9l9.25 23.62501zM502.75.75049v7.375h-18.5v7.62501h16.625v7.125H484.25v7.75h19.125v7.375H476V.87549h26.75v-.125zM11.375 53.2875H0V80h26.625V68.5125h-15.25v-15.225zm57.25.125v15.1h-15.25V80H80V53.2875H68.5l.125.125zM0 26.7125h11.5l-.125-.125v-15.1h15.25V0H0v26.7125zM53.375 0v11.4875h15.25v15.225H80V0H53.375z"/><path d="M51.8751 26.7125l-15.25-15.225h16.75V0h-26.75v11.4875l15.25 15.225h10zm-13.75 26.575h-10L40.7501 65.9l2.5 2.6125h-16.625V80h26.75V68.3875l-7.625-7.5-7.625-7.6zm30.4998-26.575v16.6l-2.625-2.625-12.625-12.6125v10.1125l7.5 7.5 7.625 7.6125h11.5V26.7125h-11.375zm-41.9999 15.1l-15.125-15.1H0v26.575h11.375v-16.6l15.25 15.2375V41.8125z" opacity=".65"/><path d="M149.318 77.3h5.13V65.36l5.94 10.74 5.94-10.74V77.3h5.13V56.69h-5.13l-5.94 10.74-5.94-10.74h-5.13V77.3zm43.123 0h5.76l-8.16-20.61h-5.76l-8.16 20.61h5.76l1.26-3.15h8.04l1.26 3.15zm-7.77-7.02l2.49-6.33 2.49 6.33h-4.98zm23.044 7.02h5.13V61.28h6.27v-4.59h-17.64v4.59h6.24V77.3zm25.448.36c5.64 0 9.57-3.87 9.57-9.39V56.69h-5.1v11.34c0 2.91-1.86 4.98-4.47 4.98-2.58 0-4.44-2.07-4.44-4.98V56.69h-5.13v11.58c0 5.52 3.96 9.39 9.57 9.39zm32.956-.36l-4.89-6.93c2.91-1.02 4.77-3.45 4.77-6.6 0-4.17-3.27-7.08-7.83-7.08h-9.57V77.3h5.13v-6.45h2.04l4.53 6.45h5.82zm-12.39-15.93h3.99c1.77 0 3 .96 3 2.4s-1.23 2.4-3 2.4h-3.99v-4.8zm17.64 15.93h5.13V56.69h-5.13V77.3zm16.291 0h5.13V61.28h6.27v-4.59h-17.64v4.59h6.24V77.3zm22.628 0h5.16v-7.11l7.98-13.5h-5.7l-4.86 8.7-4.65-8.7h-5.91l7.98 13.5v7.11zm27.374 0h5.13V65.36l5.94 10.74 5.94-10.74V77.3h5.13V56.69h-5.13l-5.94 10.74-5.94-10.74h-5.13V77.3zm38.443.36c6 0 11.07-4.89 11.07-10.68s-5.07-10.65-11.07-10.65c-6.03 0-11.1 4.86-11.1 10.65s5.07 10.68 11.1 10.68zm0-4.65c-3.15 0-5.82-2.76-5.82-6.03 0-3.24 2.67-6 5.82-6 3.15 0 5.79 2.76 5.79 6 0 3.27-2.64 6.03-5.79 6.03zM392.4 77.3h7.53c7.08 0 12.09-4.29 12.09-10.32s-5.01-10.29-12.09-10.29h-7.53V77.3zm5.13-4.65V61.34h3.18c3.54 0 6.03 2.34 6.03 5.64s-2.49 5.67-6.03 5.67h-3.18zm35.891-11.37v-4.59h-16.23V77.3h16.23v-4.59h-11.1v-3.63h10.08v-4.59h-10.08v-3.21h11.1zm10.703 11.43V56.69h-5.13V77.3h15.06v-4.59h-9.93z"/></g><defs><clipPath id="clip0_7839_15733"><path fill="#fff" d="M0 0h504.125v80H0z"/></clipPath></defs></svg>