<svg id="Layer_1" data-name="Layer 1" xmlns="http://www.w3.org/2000/svg" viewBox="0 0 440.33 397.74"><defs><style>.cls-1,.cls-9{fill:none;}.cls-2{opacity:0.6;}.cls-3{fill:#727efe;}.cls-4{opacity:0.8;}.cls-5{opacity:0.9;}.cls-6{opacity:0.7;}.cls-7{opacity:0.5;}.cls-8{fill:#6881fe;}.cls-9{stroke:#727efe;stroke-linecap:round;stroke-linejoin:round;stroke-width:0;}.cls-10{fill:#2f58a1;}</style></defs><path class="cls-1" d="M149.09,214.41c.13,1.4.27,2.8.45,4.2q.57,4.42,1.4,8.77-.83-4.35-1.4-8.77C149.36,217.21,149.22,215.81,149.09,214.41Z" transform="translate(-29.84 -51.13)"/><path class="cls-1" d="M310.32,191.42c-.56-5.72-.94-11.17-1.65-16.57-.68-5.14-1.59-10.21-2.76-15.19,1.17,5,2.08,10.05,2.76,15.19C309.38,180.25,309.76,185.7,310.32,191.42Z" transform="translate(-29.84 -51.13)"/><path class="cls-1" d="M185.8,304.14c-1.57-2-3.08-4-4.55-6.08h0C182.72,300.12,184.23,302.15,185.8,304.14Z" transform="translate(-29.84 -51.13)"/><path class="cls-1" d="M205.85,124.94H184.2q3.63,3.57,7.24,7.16h10.79C203.37,129.68,204.57,127.29,205.85,124.94Z" transform="translate(-29.84 -51.13)"/><path class="cls-1" d="M237,298.06q-3.26-2.83-6.32-5.87,3,3,6.14,5.87Z" transform="translate(-29.84 -51.13)"/><g class="cls-2"><path class="cls-3" d="M86.17,220.9a6.49,6.49,0,0,1,6.49-6.49h-42a6.49,6.49,0,0,1,0,13H92.66A6.48,6.48,0,0,1,86.17,220.9Z" transform="translate(-29.84 -51.13)"/></g><g class="cls-4"><path class="cls-3" d="M94,153.13a6.49,6.49,0,1,1,0,13h17.84l13-13Z" transform="translate(-29.84 -51.13)"/></g><g class="cls-2"><path class="cls-3" d="M100.49,159.61A6.49,6.49,0,0,0,94,153.13H92.66a6.49,6.49,0,1,0,0,13H94A6.5,6.5,0,0,0,100.49,159.61Z" transform="translate(-29.84 -51.13)"/></g><g class="cls-4"><path class="cls-3" d="M100.49,159.61A6.49,6.49,0,0,0,94,153.13H92.66a6.49,6.49,0,1,0,0,13H94A6.5,6.5,0,0,0,100.49,159.61Z" transform="translate(-29.84 -51.13)"/></g><g class="cls-5"><path class="cls-3" d="M122.4,138.59a6.48,6.48,0,0,0-6.48-6.49h-73a139.71,139.71,0,0,0-5.28,13h78.28A6.48,6.48,0,0,0,122.4,138.59Z" transform="translate(-29.84 -51.13)"/></g><g class="cls-6"><path class="cls-3" d="M191.44,132.1l2.95,2.93,4.55,4.59h0c1-2.55,2.12-5.05,3.29-7.52Z" transform="translate(-29.84 -51.13)"/></g><g class="cls-6"><path class="cls-3" d="M115.92,132.1a6.49,6.49,0,0,1,0,13h17l13-13Z" transform="translate(-29.84 -51.13)"/></g><g class="cls-7"><path class="cls-3" d="M68.72,118.46a6.48,6.48,0,0,1-6.48,6.48h52.33a6.49,6.49,0,1,1,0-13H62.24A6.48,6.48,0,0,1,68.72,118.46Z" transform="translate(-29.84 -51.13)"/></g><g class="cls-6"><path class="cls-3" d="M47,124.1c-.16.28-.31.56-.46.84h3.65A6.38,6.38,0,0,1,47,124.1Z" transform="translate(-29.84 -51.13)"/></g><g class="cls-7"><path class="cls-3" d="M62.24,124.94h0a6.49,6.49,0,0,0,0-13h-7.8l-.33.48-1,1.57-.87,1.32c-.35.54-.68,1.08-1,1.61s-.56.89-.83,1.34-.67,1.1-1,1.66l-.78,1.33c-.34.58-.67,1.17-1,1.75-.2.36-.41.71-.6,1.07a6.38,6.38,0,0,0,3.19.84Z" transform="translate(-29.84 -51.13)"/></g><g class="cls-6"><path class="cls-3" d="M62.24,124.94h0a6.49,6.49,0,0,0,0-13h-7.8l-.33.48-1,1.57-.87,1.32c-.35.54-.68,1.08-1,1.61s-.56.89-.83,1.34-.67,1.1-1,1.66l-.78,1.33c-.34.58-.67,1.17-1,1.75-.2.36-.41.71-.6,1.07a6.38,6.38,0,0,0,3.19.84Z" transform="translate(-29.84 -51.13)"/></g><path class="cls-3" d="M205.85,124.94a142,142,0,0,1,8-13H171q6.54,6.52,13.16,13Z" transform="translate(-29.84 -51.13)"/><path class="cls-3" d="M108.09,118.46a6.48,6.48,0,0,0,6.48,6.48H153q6.5-6.48,13-13H114.58A6.48,6.48,0,0,0,108.09,118.46Z" transform="translate(-29.84 -51.13)"/><g class="cls-7"><path class="cls-3" d="M184.36,91a6.49,6.49,0,1,1,0,13h35.52a141.35,141.35,0,0,1,11.85-13Z" transform="translate(-29.84 -51.13)"/></g><g class="cls-6"><path class="cls-3" d="M122.4,77.3a6.5,6.5,0,0,1,6.49-6.49H98.38l-.61.36-1,.61c-.57.36-1.15.71-1.72,1.08l-1,.61-1.83,1.21-.79.52c-.86.58-1.71,1.18-2.56,1.78l-.34.25c-.73.52-1.46,1-2.18,1.59l-.84.63-1.66,1.27-.91.72-1.58,1.28-.88.71-.42.36h48.8A6.5,6.5,0,0,1,122.4,77.3Z" transform="translate(-29.84 -51.13)"/></g><g class="cls-2"><path class="cls-3" d="M248.63,75.2l-.79-.52c-.6-.41-1.21-.81-1.83-1.21l-1-.61c-.58-.37-1.15-.73-1.73-1.08l-1-.61c-.2-.12-.41-.23-.61-.36H129.34a6.49,6.49,0,1,1,0,13H239.71q4.9-4.08,10.19-7.71Z" transform="translate(-29.84 -51.13)"/></g><g class="cls-4"><path class="cls-3" d="M135.83,77.3a6.5,6.5,0,0,0-6.49-6.49h-.45a6.49,6.49,0,1,0,0,13h.45A6.5,6.5,0,0,0,135.83,77.3Z" transform="translate(-29.84 -51.13)"/></g><path class="cls-3" d="M170.05,51.13a139.86,139.86,0,0,0-56,11.63H226A139.85,139.85,0,0,0,170.05,51.13Z" transform="translate(-29.84 -51.13)"/><g class="cls-6"><path class="cls-3" d="M52.4,173.26a6.49,6.49,0,0,1,0,13H91.7l13-13Z" transform="translate(-29.84 -51.13)"/></g><path class="cls-8" d="M58.88,179.74a6.48,6.48,0,0,0-6.48-6.48H52a6.49,6.49,0,1,1,0,13h.45A6.49,6.49,0,0,0,58.88,179.74Z" transform="translate(-29.84 -51.13)"/><g class="cls-5"><path class="cls-3" d="M147.93,193.83H29.84c.07,4.38.35,8.71.81,13H148.57c-.22-4.24-.36-8.48-.61-12.71Q147.95,194,147.93,193.83Z" transform="translate(-29.84 -51.13)"/></g><g class="cls-4"><path class="cls-3" d="M149.09,214.41H92.66a6.49,6.49,0,1,0,0,13h58.28q-.83-4.35-1.4-8.77C149.36,217.21,149.22,215.81,149.09,214.41Z" transform="translate(-29.84 -51.13)"/></g><g class="cls-2"><path class="cls-3" d="M43.67,220.9a6.5,6.5,0,0,1,6.49-6.49H31.7l.15.94c.1.52.19,1.05.28,1.57s.23,1.19.35,1.79.2,1,.31,1.57l.39,1.77c.12.52.23,1,.35,1.55s.29,1.19.44,1.78.25,1,.38,1.51l.13.49H50.16A6.49,6.49,0,0,1,43.67,220.9Z" transform="translate(-29.84 -51.13)"/></g><g class="cls-5"><path class="cls-3" d="M57.09,220.9a6.49,6.49,0,0,0-6.48-6.49h-.45a6.49,6.49,0,1,0,0,13h.45A6.48,6.48,0,0,0,57.09,220.9Z" transform="translate(-29.84 -51.13)"/></g><g class="cls-6"><path class="cls-3" d="M117.71,235l.49,0,.33,0a6.44,6.44,0,0,1,2.27.73,6.67,6.67,0,0,1,1,.7c.18.15.36.31.52.47A6.38,6.38,0,0,1,124,242.8a6.33,6.33,0,0,1-1.23,2.68,6.62,6.62,0,0,1-1,1,6,6,0,0,1-1,.7,5.58,5.58,0,0,1-.79.35,6.27,6.27,0,0,1-2.3.43h38.52c-.16-.5-.3-1-.46-1.5-1.19-3.79-2.28-7.61-3.21-11.47Z" transform="translate(-29.84 -51.13)"/></g><g class="cls-2"><path class="cls-3" d="M124,242.8a6.33,6.33,0,0,1-1.23,2.68A6.33,6.33,0,0,0,124,242.8Z" transform="translate(-29.84 -51.13)"/></g><g class="cls-2"><path class="cls-3" d="M117.71,248a6.49,6.49,0,1,1,0-13h-81c.07.22.14.45.22.67l.57,1.68.56,1.59c.2.56.41,1.11.62,1.67s.39,1,.59,1.56l.66,1.66.63,1.54.69,1.62c.14.33.29.66.43,1h76a6.27,6.27,0,0,0,2.3-.43A6.27,6.27,0,0,1,117.71,248Z" transform="translate(-29.84 -51.13)"/></g><g class="cls-6"><path class="cls-3" d="M159.39,256.91H46l.31.59c.34.63.69,1.26,1,1.89.23.43.47.85.71,1.27.37.66.75,1.31,1.14,2,.22.39.45.77.68,1.16.45.73.9,1.46,1.36,2.19l.54.86c.64,1,1.3,2,2,3l0,0H164.87q-2.07-4.42-3.92-9C160.42,259.57,159.9,258.24,159.39,256.91Z" transform="translate(-29.84 -51.13)"/></g><g class="cls-2"><path class="cls-3" d="M108.09,284a6.48,6.48,0,0,1,6.49-6.48H59.36l.15.19c.8,1,1.62,2.06,2.46,3.07l.49.57c.68.82,1.38,1.63,2.08,2.44l.83.93c.62.7,1.26,1.4,1.9,2.09l.82.88c.83.87,1.66,1.73,2.5,2.58l.21.22h43.78A6.48,6.48,0,0,1,108.09,284Z" transform="translate(-29.84 -51.13)"/></g><g class="cls-2"><path class="cls-3" d="M168.62,277.49h-54a6.49,6.49,0,1,0,0,13h61.53Q172.09,284.13,168.62,277.49Z" transform="translate(-29.84 -51.13)"/></g><g class="cls-4"><path class="cls-3" d="M168.62,277.49h-54a6.49,6.49,0,1,0,0,13h61.53Q172.09,284.13,168.62,277.49Z" transform="translate(-29.84 -51.13)"/></g><g class="cls-2"><path class="cls-3" d="M236.84,298.06q1.69,1.54,3.45,3,4,3.42,8.26,6.5a4,4,0,0,0,.34-.23,142,142,0,0,1-11.87-9.3Z" transform="translate(-29.84 -51.13)"/></g><g class="cls-2"><path class="cls-3" d="M152.38,304.55a6.49,6.49,0,0,1,6.48-6.49H79l1.29,1.09.66.55c.79.65,1.59,1.3,2.39,1.93l.58.44c.62.49,1.25,1,1.88,1.45l.91.67,1.62,1.19c.32.23.64.46,1,.68L91,307.24l.88.6c.76.51,1.52,1,2.29,1.5l.3.2q1.19.76,2.4,1.5h28.87a6.49,6.49,0,1,1,6.49-6.49,6.5,6.5,0,0,1-6.49,6.49h33.1A6.49,6.49,0,0,1,152.38,304.55Z" transform="translate(-29.84 -51.13)"/></g><g class="cls-2"><path class="cls-3" d="M132.25,304.55a6.49,6.49,0,1,0-6.49,6.49h0A6.5,6.5,0,0,0,132.25,304.55Z" transform="translate(-29.84 -51.13)"/></g><g class="cls-4"><path class="cls-3" d="M132.25,304.55a6.49,6.49,0,1,0-6.49,6.49h0A6.5,6.5,0,0,0,132.25,304.55Z" transform="translate(-29.84 -51.13)"/></g><g class="cls-2"><path class="cls-3" d="M181.25,298.06H158.86a6.49,6.49,0,0,0,0,13H191.6c-1-1.13-2-2.26-2.95-3.41s-1.92-2.31-2.85-3.49C184.23,302.15,182.72,300.12,181.25,298.06Z" transform="translate(-29.84 -51.13)"/></g><g class="cls-4"><path class="cls-3" d="M181.25,298.06H158.86a6.49,6.49,0,0,0,0,13H191.6c-1-1.13-2-2.26-2.95-3.41s-1.92-2.31-2.85-3.49C184.23,302.15,182.72,300.12,181.25,298.06Z" transform="translate(-29.84 -51.13)"/></g><path class="cls-3" d="M200.18,320.43H115.09a140.81,140.81,0,0,0,91.14,6.46l-.19-.16c-.44-.46-.92-.89-1.34-1.37Q202.47,322.89,200.18,320.43Z" transform="translate(-29.84 -51.13)"/><path class="cls-8" d="M58.44,179.74A6.49,6.49,0,0,0,52,173.26H31a.51.51,0,0,0,0,.13c-.05.34-.08.69-.12,1q-.15,1.17-.27,2.34c0,.43-.08.85-.12,1.28-.07.71-.13,1.42-.19,2.13,0,.46-.07.92-.1,1.39,0,.67-.09,1.35-.13,2,0,.49-.05,1-.07,1.47s0,.77,0,1.16H52A6.5,6.5,0,0,0,58.44,179.74Z" transform="translate(-29.84 -51.13)"/><g class="cls-4"><path class="cls-3" d="M58.44,179.74A6.49,6.49,0,0,0,52,173.26H31a.51.51,0,0,0,0,.13c-.05.34-.08.69-.12,1q-.15,1.17-.27,2.34c0,.43-.08.85-.12,1.28-.07.71-.13,1.42-.19,2.13,0,.46-.07.92-.1,1.39,0,.67-.09,1.35-.13,2,0,.49-.05,1-.07,1.47s0,.77,0,1.16H52A6.5,6.5,0,0,0,58.44,179.74Z" transform="translate(-29.84 -51.13)"/></g><g class="cls-6"><path class="cls-3" d="M117.71,235h0l.49,0Z" transform="translate(-29.84 -51.13)"/></g><g class="cls-4"><path class="cls-3" d="M117.71,235h0l.49,0Z" transform="translate(-29.84 -51.13)"/></g><g class="cls-2"><path class="cls-3" d="M111.22,241.48a6.49,6.49,0,0,0,6.49,6.48,6.27,6.27,0,0,0,2.3-.43,5.58,5.58,0,0,0,.79-.35,6,6,0,0,0,1-.7,6.62,6.62,0,0,0,1-1A6.33,6.33,0,0,0,124,242.8a6.38,6.38,0,0,0-1.69-5.86c-.16-.16-.34-.32-.52-.47a6.67,6.67,0,0,0-1-.7,6.44,6.44,0,0,0-2.27-.73l-.33,0-.49,0h0A6.48,6.48,0,0,0,111.22,241.48Z" transform="translate(-29.84 -51.13)"/></g><g class="cls-4"><path class="cls-3" d="M111.22,241.48a6.49,6.49,0,0,0,6.49,6.48,6.27,6.27,0,0,0,2.3-.43,5.58,5.58,0,0,0,.79-.35,6,6,0,0,0,1-.7,6.62,6.62,0,0,0,1-1A6.33,6.33,0,0,0,124,242.8a6.38,6.38,0,0,0-1.69-5.86c-.16-.16-.34-.32-.52-.47a6.67,6.67,0,0,0-1-.7,6.44,6.44,0,0,0-2.27-.73l-.33,0-.49,0h0A6.48,6.48,0,0,0,111.22,241.48Z" transform="translate(-29.84 -51.13)"/></g><g class="cls-6"><path class="cls-3" d="M124.19,241.48a6.43,6.43,0,0,1-.15,1.32A6.43,6.43,0,0,0,124.19,241.48Z" transform="translate(-29.84 -51.13)"/></g><g class="cls-2"><path class="cls-3" d="M124.19,241.48a6.43,6.43,0,0,1-.15,1.32A6.43,6.43,0,0,0,124.19,241.48Z" transform="translate(-29.84 -51.13)"/></g><g class="cls-2"><path class="cls-3" d="M124.19,241.48a6.43,6.43,0,0,1-.15,1.32A6.43,6.43,0,0,0,124.19,241.48Z" transform="translate(-29.84 -51.13)"/></g><g class="cls-4"><path class="cls-3" d="M124.19,241.48a6.43,6.43,0,0,1-.15,1.32A6.43,6.43,0,0,0,124.19,241.48Z" transform="translate(-29.84 -51.13)"/></g><g class="cls-6"><path class="cls-9" d="M120.8,247.18a5.58,5.58,0,0,1-.79.35" transform="translate(-29.84 -51.13)"/></g><g class="cls-2"><path class="cls-9" d="M120.8,247.18a5.58,5.58,0,0,1-.79.35" transform="translate(-29.84 -51.13)"/></g><g class="cls-4"><path class="cls-9" d="M120.8,247.18a5.58,5.58,0,0,1-.79.35" transform="translate(-29.84 -51.13)"/></g><g class="cls-6"><path class="cls-9" d="M120.8,247.18a5.58,5.58,0,0,1-.79.35" transform="translate(-29.84 -51.13)"/></g><g class="cls-6"><path class="cls-9" d="M120.8,247.18a5.58,5.58,0,0,1-.79.35" transform="translate(-29.84 -51.13)"/></g><g class="cls-4"><path class="cls-9" d="M120.8,247.18a5.58,5.58,0,0,1-.79.35" transform="translate(-29.84 -51.13)"/></g><g class="cls-2"><path class="cls-9" d="M120.8,247.18a5.58,5.58,0,0,1-.79.35" transform="translate(-29.84 -51.13)"/></g><g class="cls-4"><path class="cls-9" d="M120.8,247.18a5.58,5.58,0,0,1-.79.35" transform="translate(-29.84 -51.13)"/></g><g class="cls-6"><path class="cls-9" d="M118.53,235l-.33,0" transform="translate(-29.84 -51.13)"/></g><g class="cls-2"><path class="cls-9" d="M118.53,235l-.33,0" transform="translate(-29.84 -51.13)"/></g><g class="cls-4"><path class="cls-9" d="M118.53,235l-.33,0" transform="translate(-29.84 -51.13)"/></g><g class="cls-6"><path class="cls-9" d="M118.53,235l-.33,0" transform="translate(-29.84 -51.13)"/></g><g class="cls-6"><path class="cls-9" d="M118.53,235l-.33,0" transform="translate(-29.84 -51.13)"/></g><g class="cls-4"><path class="cls-9" d="M118.53,235l-.33,0" transform="translate(-29.84 -51.13)"/></g><g class="cls-2"><path class="cls-9" d="M118.53,235l-.33,0" transform="translate(-29.84 -51.13)"/></g><g class="cls-4"><path class="cls-9" d="M118.53,235l-.33,0" transform="translate(-29.84 -51.13)"/></g><g class="cls-5"><path class="cls-3" d="M190.85,97.43A6.49,6.49,0,0,0,184.36,91H72.17l-.49.48c-.69.68-1.37,1.37-2.05,2.06l-.78.8c-.91.95-1.82,1.91-2.7,2.89l-.38.42c-.76.85-1.51,1.7-2.25,2.57l-.8.94c-.61.73-1.22,1.47-1.82,2.21l-.48.6H184.36A6.5,6.5,0,0,0,190.85,97.43Z" transform="translate(-29.84 -51.13)"/></g><path class="cls-3" d="M202.23,132.1c-1.17,2.47-2.26,5-3.29,7.52q25.71,25.84,51.35,51.76c.25,0,.51,0,.77,0q27.88,0,55.77.07h3.49c-.56-5.72-.94-11.17-1.65-16.57-.68-5.14-1.59-10.21-2.76-15.19a140.69,140.69,0,0,0-17.42-42.39,143.4,143.4,0,0,0-9.78-13.91,145.21,145.21,0,0,0-15.44-16.54c-1.4-1.28-2.82-2.54-4.28-3.77q-4.38-3.72-9-7l-.1.07q-5.28,3.63-10.19,7.71c-2.76,2.28-5.41,4.67-8,7.16a141.35,141.35,0,0,0-11.85,13q-3.15,3.92-6,8a142,142,0,0,0-8,13C204.57,127.29,203.37,129.68,202.23,132.1Z" transform="translate(-29.84 -51.13)"/><g class="cls-2"><path class="cls-3" d="M86.17,159.61a6.48,6.48,0,0,1,6.49-6.48H35.09q-.92,3.23-1.68,6.51c-.08.33-.15.68-.22,1-.17.77-.35,1.53-.51,2.31-.09.44-.17.88-.25,1.32-.12.6-.24,1.2-.35,1.81H92.66A6.49,6.49,0,0,1,86.17,159.61Z" transform="translate(-29.84 -51.13)"/></g><path class="cls-3" d="M329.5,51.4a141,141,0,0,0-37.39,5l1.13,1c.44.46.92.89,1.34,1.37,6.34,7,13.05,13.79,18.9,21.22a176.93,176.93,0,0,1,24.85,43.25,170,170,0,0,1,11.41,42.28c1,8.1,1.09,16.33,1.58,24.51,0,.39.1.78.2,1.53h62c-.79,1-1.13,1.55-1.57,2q-39.72,39.7-79.43,79.41c-1.28,1.28-2.07,1.39-3.42,0-8-8-16.2-15.87-24.2-23.9q-28-28.12-55.9-56.35c-.25,0-.51,0-.77,0q-27.89,0-55.77-.07H189c.56,5.72.94,11.17,1.65,16.57a142.39,142.39,0,0,0,40.09,82.9q3.06,3,6.32,5.87a142,142,0,0,0,11.87,9.3,140.67,140.67,0,1,0,80.61-256Z" transform="translate(-29.84 -51.13)"/><path class="cls-10" d="M86.47,427.79a41.25,41.25,0,0,0,4.64-.24,29.5,29.5,0,0,0,4-.72,27.38,27.38,0,0,0,3.52-1.15,36.53,36.53,0,0,0,3.31-1.55V410.37H92.27a1.82,1.82,0,0,1-1.33-.48,1.54,1.54,0,0,1-.5-1.18v-4.79H109.6v24a35.65,35.65,0,0,1-4.9,3A33.94,33.94,0,0,1,99.26,433a38.76,38.76,0,0,1-6.21,1.26,57.29,57.29,0,0,1-7.19.42,32.44,32.44,0,0,1-12.45-2.33,28.79,28.79,0,0,1-9.76-6.54,29.55,29.55,0,0,1-6.38-10.08A35.5,35.5,0,0,1,55,402.74a36.16,36.16,0,0,1,2.25-13,28,28,0,0,1,16.46-16.59,36,36,0,0,1,13.22-2.31,41.12,41.12,0,0,1,6.88.54,32.81,32.81,0,0,1,5.9,1.57,27.37,27.37,0,0,1,5,2.48A30.86,30.86,0,0,1,109,378.7l-2.39,3.84a2.21,2.21,0,0,1-1.92,1.17,3.08,3.08,0,0,1-1.52-.48c-.73-.4-1.54-.9-2.44-1.48a21.3,21.3,0,0,0-3.29-1.68,27.46,27.46,0,0,0-4.57-1.37,30.69,30.69,0,0,0-6.25-.56,25.21,25.21,0,0,0-9.54,1.72,19.93,19.93,0,0,0-7.27,4.92,21.62,21.62,0,0,0-4.62,7.75,30.34,30.34,0,0,0-1.61,10.21,31.22,31.22,0,0,0,1.67,10.57A22.41,22.41,0,0,0,70,421.17a20.3,20.3,0,0,0,7.23,4.92A24.35,24.35,0,0,0,86.47,427.79Z" transform="translate(-29.84 -51.13)"/><path class="cls-10" d="M127.37,376a4.86,4.86,0,0,1-.46,2.11,5.88,5.88,0,0,1-1.22,1.74,5.61,5.61,0,0,1-1.76,1.2,5.32,5.32,0,0,1-2.14.44,5.14,5.14,0,0,1-2.11-.44,5.76,5.76,0,0,1-1.74-1.2,5.64,5.64,0,0,1-1.2-1.74,5.14,5.14,0,0,1-.43-2.11,5.44,5.44,0,0,1,.43-2.16,5.59,5.59,0,0,1,1.2-1.78,5.76,5.76,0,0,1,1.74-1.2,5.14,5.14,0,0,1,2.11-.44,5.32,5.32,0,0,1,2.14.44,5.61,5.61,0,0,1,1.76,1.2,5.81,5.81,0,0,1,1.22,1.78A5.14,5.14,0,0,1,127.37,376Zm-1.74,13.85v44.12h-7.75V389.81Z" transform="translate(-29.84 -51.13)"/><path class="cls-10" d="M148.32,434.63c-3.49,0-6.17-1-8-2.92s-2.81-4.75-2.81-8.41v-27h-5.31a1.72,1.72,0,0,1-1.18-.42,1.59,1.59,0,0,1-.48-1.28v-3.09l7.23-.92L139.52,377a1.66,1.66,0,0,1,.57-1.07,1.82,1.82,0,0,1,1.22-.41h3.92v15.2h12.63v5.62H145.23v26.48a5.64,5.64,0,0,0,1.35,4.14,4.71,4.71,0,0,0,3.48,1.35,6.07,6.07,0,0,0,2.11-.33,9.38,9.38,0,0,0,1.55-.72q.65-.39,1.11-.72a1.47,1.47,0,0,1,.81-.32,1.32,1.32,0,0,1,1.08.74l2.27,3.7a14.44,14.44,0,0,1-4.84,2.94A16.4,16.4,0,0,1,148.32,434.63Z" transform="translate(-29.84 -51.13)"/><path class="cls-10" d="M222.27,402.74a36,36,0,0,1-2.22,12.87,29.48,29.48,0,0,1-6.27,10.09,28.13,28.13,0,0,1-9.73,6.55,35,35,0,0,1-25.11,0,28.09,28.09,0,0,1-9.72-6.55A29.48,29.48,0,0,1,163,415.61a38.42,38.42,0,0,1,0-25.74,29.72,29.72,0,0,1,6.27-10.1,28.21,28.21,0,0,1,9.72-6.6,34.71,34.71,0,0,1,25.11,0,28.25,28.25,0,0,1,9.73,6.6,29.72,29.72,0,0,1,6.27,10.1A36.08,36.08,0,0,1,222.27,402.74Zm-8.66,0A31.86,31.86,0,0,0,212,392.42a21.89,21.89,0,0,0-4.45-7.73,19.44,19.44,0,0,0-7-4.86,25.48,25.48,0,0,0-18.25,0,19.64,19.64,0,0,0-7,4.86,21.63,21.63,0,0,0-4.47,7.73,34.67,34.67,0,0,0,0,20.63,21.58,21.58,0,0,0,4.47,7.7,19.22,19.22,0,0,0,7,4.84,25.62,25.62,0,0,0,18.25,0,19,19,0,0,0,7-4.84,21.84,21.84,0,0,0,4.45-7.7A31.71,31.71,0,0,0,213.61,402.74Z" transform="translate(-29.84 -51.13)"/><path class="cls-10" d="M228.24,448.87V389.81h4.61a2,2,0,0,1,2.1,1.61l.65,5.23a23.35,23.35,0,0,1,6.47-5.53,16.44,16.44,0,0,1,8.38-2.09,15.94,15.94,0,0,1,6.88,1.45,14.2,14.2,0,0,1,5.27,4.32,20.83,20.83,0,0,1,3.36,7.07,36.57,36.57,0,0,1,1.17,9.72,30.52,30.52,0,0,1-1.3,9.08,22.25,22.25,0,0,1-3.75,7.27,17.53,17.53,0,0,1-6,4.84,17.8,17.8,0,0,1-8,1.76,16.44,16.44,0,0,1-7-1.35,15.82,15.82,0,0,1-5.12-3.83v19.51Zm19.64-53.57a12.5,12.5,0,0,0-6.64,1.74A19.19,19.19,0,0,0,236,402V423.3a12.36,12.36,0,0,0,4.68,4.05,13.35,13.35,0,0,0,5.69,1.18,11.14,11.14,0,0,0,9.45-4.4q3.3-4.39,3.31-12.54a31.75,31.75,0,0,0-.76-7.41,14.65,14.65,0,0,0-2.2-5.07,8.62,8.62,0,0,0-3.53-2.9A11.77,11.77,0,0,0,247.88,395.3Z" transform="translate(-29.84 -51.13)"/><path class="cls-10" d="M297.23,397.08a1.72,1.72,0,0,1-1.61,1,3,3,0,0,1-1.48-.48c-.56-.32-1.23-.67-2-1.07a19,19,0,0,0-2.85-1.08,13.41,13.41,0,0,0-3.92-.51,11.35,11.35,0,0,0-3.53.51,8.36,8.36,0,0,0-2.68,1.37,6,6,0,0,0-1.7,2,5.49,5.49,0,0,0-.59,2.51,4.2,4.2,0,0,0,1,2.83,8.62,8.62,0,0,0,2.6,2,22.56,22.56,0,0,0,3.65,1.46c1.37.42,2.77.87,4.21,1.35s2.84,1,4.2,1.59a15.45,15.45,0,0,1,3.66,2.17,10,10,0,0,1,2.59,3.21,9.83,9.83,0,0,1,1,4.55,14.36,14.36,0,0,1-1.09,5.64,12.2,12.2,0,0,1-3.22,4.48,15.51,15.51,0,0,1-5.23,3,21.6,21.6,0,0,1-7.14,1.09,22.27,22.27,0,0,1-8.36-1.51,21,21,0,0,1-6.36-3.85l1.83-3a2.65,2.65,0,0,1,.82-.87,2.3,2.3,0,0,1,1.27-.31,2.88,2.88,0,0,1,1.65.61c.58.41,1.29.86,2.12,1.35a15.67,15.67,0,0,0,3,1.35,13.62,13.62,0,0,0,4.42.61,12.14,12.14,0,0,0,4-.59,8.28,8.28,0,0,0,2.84-1.59,6.17,6.17,0,0,0,1.67-2.31,7,7,0,0,0,.55-2.78,4.65,4.65,0,0,0-1-3,8.43,8.43,0,0,0-2.59-2.05,21.81,21.81,0,0,0-3.69-1.48c-1.37-.42-2.78-.86-4.22-1.33a43.57,43.57,0,0,1-4.22-1.59,14.6,14.6,0,0,1-3.68-2.24,10.2,10.2,0,0,1-2.6-3.33,10.83,10.83,0,0,1-1-4.81,11.68,11.68,0,0,1,1-4.86,11.86,11.86,0,0,1,3.05-4.09,14.71,14.71,0,0,1,4.92-2.81,19.64,19.64,0,0,1,6.66-1.05,21.16,21.16,0,0,1,7.82,1.37,18.49,18.49,0,0,1,6,3.77Z" transform="translate(-29.84 -51.13)"/><path class="cls-3" d="M307.48,372.86h6.92a3,3,0,0,1,1.85.56,2.84,2.84,0,0,1,1,1.42L330,417.64c.22.77.43,1.6.62,2.49s.36,1.82.54,2.79c.19-1,.4-1.91.6-2.81a23.41,23.41,0,0,1,.68-2.47l14.48-42.8a3.16,3.16,0,0,1,1-1.35,2.77,2.77,0,0,1,1.83-.63h2.41a2.86,2.86,0,0,1,1.82.56,3,3,0,0,1,1,1.42l14.4,42.8a42.79,42.79,0,0,1,1.37,5.11c.17-.95.33-1.85.47-2.71a19.25,19.25,0,0,1,.56-2.4l12.76-42.8a2.71,2.71,0,0,1,1-1.37,2.79,2.79,0,0,1,1.83-.61h6.49L374.6,434.44h-7.48l-15.6-47a25.33,25.33,0,0,1-.85-3.09c-.15.57-.28,1.12-.41,1.65s-.27,1-.41,1.44l-15.68,47h-7.48Z" transform="translate(-29.84 -51.13)"/><path class="cls-3" d="M425.09,428.38a40.09,40.09,0,0,0,4.57-.24,27.18,27.18,0,0,0,3.93-.71,25,25,0,0,0,3.49-1.14c1.08-.44,2.17-1,3.26-1.52V411.19H430.8a1.84,1.84,0,0,1-1.31-.47,1.54,1.54,0,0,1-.49-1.16v-4.73h18.9v23.63a32.5,32.5,0,0,1-10.2,5,39.78,39.78,0,0,1-6.13,1.25,57.6,57.6,0,0,1-7.08.41,32,32,0,0,1-12.29-2.3,28.27,28.27,0,0,1-9.63-6.45,29.18,29.18,0,0,1-6.29-9.95A34.77,34.77,0,0,1,394,403.67a35.91,35.91,0,0,1,2.21-12.85,27.68,27.68,0,0,1,16.25-16.37,35.68,35.68,0,0,1,13-2.27,40.23,40.23,0,0,1,6.79.53,32.14,32.14,0,0,1,5.82,1.55,26.94,26.94,0,0,1,5,2.45,30,30,0,0,1,4.25,3.24L445,383.73a2.17,2.17,0,0,1-1.89,1.16,3,3,0,0,1-1.5-.47c-.72-.4-1.52-.89-2.41-1.46a21.12,21.12,0,0,0-3.24-1.65,26.84,26.84,0,0,0-4.52-1.36,29.76,29.76,0,0,0-6.16-.56,25,25,0,0,0-9.41,1.7,19.86,19.86,0,0,0-7.18,4.86,21.48,21.48,0,0,0-4.55,7.65,30,30,0,0,0-1.59,10.07,30.59,30.59,0,0,0,1.65,10.42,22.21,22.21,0,0,0,4.66,7.76A20.08,20.08,0,0,0,416,426.7,23.91,23.91,0,0,0,425.09,428.38Z" transform="translate(-29.84 -51.13)"/></svg>